<svg width="540" height="487" viewBox="0 0 540 487" fill="none" xmlns="http://www.w3.org/2000/svg">
<path fill-rule="evenodd" clip-rule="evenodd" d="M84.9778 393.447C94.365 338.618 189.352 369.853 251.624 352.903C313.896 335.952 387.569 257.009 436.327 295.679C485.085 334.35 433.207 427.827 321.377 448.921C209.547 470.016 75.5907 448.277 84.9778 393.447Z" fill="#F2F2F2"/>
<g opacity="0.5">
<path fill-rule="evenodd" clip-rule="evenodd" d="M21.7021 62.5417C20.1292 64.1122 20.7401 69.6937 20.7072 71.7592C20.6566 74.9748 20.8567 78.1616 21.1255 81.3656C21.3056 83.5109 22.321 103.983 25.1467 102.411C26.7396 101.525 25.741 95.6029 25.7382 93.7297C25.7317 89.5652 25.5585 85.411 25.2809 81.2558C25.0227 77.3982 24.8607 73.5856 25.0093 69.7205C25.0455 68.7772 25.9281 58.3082 21.7021 62.5417Z" fill="#89C5CC"/>
<path fill-rule="evenodd" clip-rule="evenodd" d="M90.2036 60.018C76.6901 60.1256 63.1821 60.7922 49.6751 61.2005C43.1756 61.3971 36.6802 61.6469 30.1877 62.0071C27.9753 62.1299 23.2303 61.4216 21.3871 62.6004C17.2954 65.2176 23.8943 65.8295 25.6535 65.7655C52.3838 64.7962 79.1234 63.5196 105.876 63.4594C119 63.4302 132.117 63.8038 145.242 63.7199C150.259 63.6879 155.815 61.5264 157.082 67.3661C158.512 73.9558 156.868 81.2927 156.421 87.9144C156.123 92.3348 156.229 96.6633 156.428 101.08C156.556 103.909 156.224 107.098 156.724 109.874C157.205 112.548 159.127 114.151 160.889 111.156C161.942 109.367 161.418 104.948 161.488 102.874C161.582 100.082 161.494 97.2905 161.494 94.4977C161.493 87.6808 162.455 80.8909 162.328 74.0754C162.246 69.6806 162.013 61.7132 156.47 60.6573C150.366 59.4942 142.863 60.6638 136.616 60.5924C121.138 60.4158 105.687 59.8971 90.2036 60.018Z" fill="#89C5CC"/>
<path fill-rule="evenodd" clip-rule="evenodd" d="M52.9678 102.655C47.8722 102.655 42.7762 102.686 37.6812 102.77C33.3113 102.843 26.4408 101.932 22.3737 103.495C19.5893 104.566 18.8497 107.674 22.3737 108.502C26.217 109.406 32.0095 107.929 36.0306 107.858C56.1946 107.502 76.5526 107.038 96.6882 108.313C115.556 109.508 134.787 110.666 153.682 109.405C155.272 109.299 163.38 108.976 159.681 105.937C157.522 104.163 148.774 105.33 145.968 105.245C136.074 104.946 126.17 104.88 116.279 104.505C106.517 104.135 96.7977 103.037 87.0324 102.765C75.6871 102.45 64.3168 102.655 52.9678 102.655Z" fill="#89C5CC"/>
<path fill-rule="evenodd" clip-rule="evenodd" d="M47.8694 73.6733C55.8115 74.02 63.6691 85.5381 55.6332 91.1048C48.0946 96.328 33.9659 90.6037 38.158 80.4753C37.5553 81.9396 38.9199 78.8844 38.9371 78.864C39.7342 77.9249 41.1656 76.8852 42.1481 76.1449C43.2726 75.2976 44.4435 74.3649 45.7992 73.9403C46.6892 73.6617 46.5495 74.7102 47.8694 73.6733ZM44.0015 69.519C40.2844 70.9704 38.5879 72.6076 36.0334 75.5701C34.2659 77.6204 32.0127 78.699 32.0327 81.4696C32.0368 82.0829 32.8247 82.7569 32.9608 83.3474C33.1488 84.1637 32.9311 85.2095 33.0801 86.0767C34.6178 95.0259 45.2954 98.0431 53.1112 96.3535C59.9195 94.8817 65.0113 88.3463 63.4342 81.2397C61.8463 74.0859 51.2378 66.6887 44.0015 69.519Z" fill="#89C5CC"/>
<path fill-rule="evenodd" clip-rule="evenodd" d="M40.6905 82.012C40.6905 85.2313 45.7758 85.2313 45.7758 82.012C45.7758 78.8294 40.6905 78.6926 40.6905 82.012Z" fill="#89C5CC"/>
<path fill-rule="evenodd" clip-rule="evenodd" d="M47.0526 81.3604C47.0526 83.9187 51.0933 83.9187 51.0933 81.3604C51.0933 78.8314 47.0526 78.7234 47.0526 81.3604Z" fill="#89C5CC"/>
<path fill-rule="evenodd" clip-rule="evenodd" d="M48.3038 86.6362C47.0099 87.1335 45.3686 86.1022 44.3063 86.7817C42.425 87.986 44.311 89.0758 45.3194 89.5597C49.8596 91.7384 50.6675 85.7309 48.3038 86.6362Z" fill="#89C5CC"/>
<path fill-rule="evenodd" clip-rule="evenodd" d="M117.644 79.5011C117.509 79.5586 117.027 79.7626 117.644 79.5011V79.5011ZM97.8717 76.6114C94.4735 77.3786 91.6043 80.552 87.9123 80.1274C85.0829 79.802 83.1673 77.0717 80.3741 76.6749C76.801 76.1669 67.0765 84.3178 72.1892 85.7163C75.1723 86.5326 76.827 81.0814 79.4623 80.7916C81.5469 80.5627 84.3818 83.1191 86.5422 83.483C90.5722 84.1621 93.3398 81.9422 96.8776 80.5107C100.722 78.9551 102.909 80.3559 106.252 82.0849C108.891 83.4496 111.377 84.3382 114.397 83.775C117.231 83.247 120.791 80.3327 123.643 80.6317C126.437 80.9247 128.431 83.8404 131.305 84.1111C132.49 84.2223 134.254 84.6261 134.055 82.7979C133.896 81.334 132.262 81.582 131.24 81.0498C128.612 79.6815 126.155 77.2576 122.983 77.4643C120.598 77.6201 118.426 79.2963 116.227 80.0982C109.027 82.7241 104.979 75.0173 97.8717 76.6114Z" fill="#89C5CC"/>
<path fill-rule="evenodd" clip-rule="evenodd" d="M103.887 122.98C89.998 123.108 76.0624 123.314 62.2128 124.428C58.9294 124.691 25.4024 127.857 25.466 128.085C25.5834 128.507 29.8957 129.151 29.8688 129.251C29.5782 128.53 28.9138 128.231 27.8761 128.356C59.6736 128.356 91.3704 125.509 123.21 126.021C131.21 126.15 139.24 126.096 147.235 126.348C149.231 126.411 154.176 127.842 155.743 126.941C159.857 124.575 152.384 124.302 151.146 124.203C135.477 122.949 119.599 122.824 103.887 122.98Z" fill="#69A1AC"/>
<path fill-rule="evenodd" clip-rule="evenodd" d="M21.3499 129.729C19.2736 131.81 21.1855 139.299 21.2672 142.114C21.3856 146.183 21.2881 150.282 21.6451 154.34C22.0528 158.977 22.6851 163.916 23.9016 168.414C24.5715 170.892 26.9231 174.831 27.855 170.328C28.5203 167.112 27.51 162.845 27.1585 159.569C26.6882 155.186 26.5745 150.861 26.5568 146.457C26.541 142.619 26.4672 138.766 26.1524 134.94C25.989 132.954 24.9899 126.108 21.3499 129.729Z" fill="#69A1AC"/>
<path fill-rule="evenodd" clip-rule="evenodd" d="M73.5881 167.868C63.7323 168.037 53.8551 168.269 44.0159 168.885C39.9831 169.137 35.9536 169.513 31.9357 169.94C31.1157 170.026 22.0408 170.395 26.0959 173.744C27.9261 175.256 35.4549 173.165 37.9417 172.947C42.1239 172.581 46.3053 172.343 50.4997 172.165C60.2181 171.752 69.9662 171.388 79.6944 171.557C97.4608 171.865 115.113 172.003 132.884 171.606C135.409 171.55 155.19 172.079 155.862 169.452C156.403 167.335 149.329 168.306 148.04 168.344C143.308 168.486 138.576 168.453 133.843 168.429C113.792 168.326 93.6239 167.529 73.5881 167.868Z" fill="#69A1AC"/>
<path fill-rule="evenodd" clip-rule="evenodd" d="M152.513 126.216C152.826 134.991 154.32 143.756 154.798 152.558C155.016 156.582 155.273 160.602 155.47 164.626C155.534 165.925 155.011 169.053 156.546 169.8C158.652 170.824 158.936 168.76 159.33 167.364C160.469 163.331 159.699 158.093 159.595 153.951C159.495 149.939 159.488 145.921 159.193 141.917C158.889 137.826 158.066 133.813 157.684 129.736C157.522 128.012 158.087 125.143 156.257 124.073C154.675 123.149 152.445 124.314 152.513 126.216Z" fill="#69A1AC"/>
<path fill-rule="evenodd" clip-rule="evenodd" d="M55.6387 140.814C55.6764 140.842 55.7135 140.871 55.7506 140.901C55.7135 140.871 55.6759 140.843 55.6387 140.814ZM47.263 138.213C50.3863 139.106 52.9515 138.773 55.935 141.047C58.4082 142.932 60.9451 145.69 61.7655 148.738C63.6607 155.781 57.2354 159.64 51.2118 159.716C45.0419 159.794 35.9094 158.363 36.2256 150.454C36.4679 144.378 40.9046 138.449 47.263 138.213ZM47.4831 134.234C39.3841 134.637 32.8511 143.732 32.9212 151.388C33.0057 160.667 43.5195 163.057 50.988 163.121C59.4171 163.194 67.8225 157.374 65.5638 147.895C63.754 140.3 55.2715 133.829 47.4831 134.234Z" fill="#69A1AC"/>
<path fill-rule="evenodd" clip-rule="evenodd" d="M39.3364 146.692C39.3364 149.279 43.4244 149.279 43.4244 146.692C43.4244 144.134 39.3364 144.024 39.3364 146.692Z" fill="#69A1AC"/>
<path fill-rule="evenodd" clip-rule="evenodd" d="M47.9112 145.556C47.9112 148.164 52.0317 148.164 52.0317 145.556C52.0317 142.978 47.9112 142.867 47.9112 145.556Z" fill="#69A1AC"/>
<path fill-rule="evenodd" clip-rule="evenodd" d="M43.184 151.458C40.5231 154.115 49.8706 158.772 52.075 155.076C53.8857 152.041 49.9435 153.047 48.546 152.883C47.0273 152.704 44.4236 150.222 43.184 151.458Z" fill="#69A1AC"/>
<path fill-rule="evenodd" clip-rule="evenodd" d="M117.919 145.61C117.662 145.717 117.662 145.717 117.919 145.61V145.61ZM82.8162 141.285C80.122 141.79 71.2801 144.773 71.1608 147.97C70.9426 153.78 79.602 147.829 81.4823 147.064C86.5904 144.989 89.2744 149.223 94.4057 149.447C98.8624 149.641 102.96 145.827 107.158 146.278C111.557 146.75 113.673 151.43 118.751 148.945C121.437 147.631 121.369 145.605 118.354 145.414C116.531 145.298 115.279 146.052 113.378 145.267C110.406 144.042 109.209 142.046 105.653 142.363C102.969 142.602 100.544 144.114 97.9245 144.7C91.9264 146.04 88.5994 140.202 82.8162 141.285Z" fill="#69A1AC"/>
<path fill-rule="evenodd" clip-rule="evenodd" d="M138.612 148.132C138.426 148.21 138.426 148.21 138.612 148.132V148.132ZM139.291 145.713C139.321 145.726 139.524 146.008 139.291 145.713V145.713ZM136.203 143.866C136.087 143.956 136.087 143.956 136.203 143.866V143.866ZM136.27 143.844C136.869 144.202 141.684 147.495 138.187 148.27C136.411 148.664 134.942 145.091 136.27 143.844ZM134.676 140.196C126.963 143.713 135.263 156.298 141.316 151.185C143.863 149.033 144.198 144.684 141.721 142.442C140.236 141.099 136.691 139.275 134.676 140.196Z" fill="#69A1AC"/>
<path fill-rule="evenodd" clip-rule="evenodd" d="M62.2709 189.79C52.6463 189.793 42.9371 189.591 33.3255 190.162C31.7079 190.257 25.5459 189.95 24.7125 191.641C23.1878 194.733 29.5281 193.198 30.4492 193.105C49.5871 191.19 69.5783 192.292 88.7793 192.838C104.483 193.284 120.102 193.562 135.787 194.371C139.91 194.584 144.029 194.819 148.149 195.067C149.492 195.148 152.872 196.038 153.155 193.893C153.417 191.909 149.201 192.357 148.148 192.301C139.773 191.86 131.404 191.399 123.032 190.927C102.879 189.791 82.4553 189.787 62.2709 189.79Z" fill="#89C5CC"/>
<path fill-rule="evenodd" clip-rule="evenodd" d="M24.4035 193.229C22.6058 195.016 23.4485 201.84 23.3983 204.096C23.3106 208.041 23.1244 211.982 23.0408 215.926C22.954 220.048 23.0747 224.188 23.3185 228.304C23.4206 230.032 24.839 238.384 27.0722 233.605C28.07 231.469 27.0481 225.52 27.0634 223.1C27.0908 218.695 27.328 214.309 27.5472 209.91C27.7357 206.129 27.7426 202.345 27.9079 198.562C27.9604 197.357 28.1029 189.519 24.4035 193.229Z" fill="#89C5CC"/>
<path fill-rule="evenodd" clip-rule="evenodd" d="M154.774 228.465C145.407 229.425 135.891 228.971 126.488 229.68C118.385 230.291 110.289 230.541 102.165 230.713C83.7689 231.101 65.3414 231.48 46.9984 233.013C42.818 233.362 38.6426 233.733 34.4511 233.92C32.3548 234.014 23.5585 233.06 22.9034 235.27C21.7877 239.033 31.1946 237.544 33.2235 237.485C37.6853 237.356 42.1262 237.033 46.5754 236.694C65.2787 235.27 84.0535 234.844 102.797 234.251C112.991 233.929 123.113 233.184 133.284 232.505C138.354 232.167 143.438 232.156 148.507 231.828C149.833 231.742 154.528 231.912 155.482 230.844C156.138 230.111 156.303 228.322 154.774 228.465Z" fill="#89C5CC"/>
<path fill-rule="evenodd" clip-rule="evenodd" d="M151.599 193.87C151.92 202.852 152.428 211.827 152.731 220.809C152.822 223.51 152.006 228.352 153.51 230.734C155.929 234.564 157.817 230.51 158.26 228.124C159.658 220.591 158.155 212.269 157.764 204.69C157.616 201.798 158.514 195.362 157.116 192.774C155.785 190.309 151.48 190.557 151.599 193.87Z" fill="#89C5CC"/>
<path fill-rule="evenodd" clip-rule="evenodd" d="M135.874 206.663C139.462 207.635 139.986 215.437 135.937 216.014C129.91 216.873 132.546 208.271 135.874 206.663ZM134.868 203.56C133.774 203.526 131.247 203.224 130.572 204.115C130.008 204.861 130.578 206.434 130.512 207.144C130.275 209.682 128.211 211.148 129.134 214.145C129.76 216.179 131.437 218.09 133.481 218.797C144.266 222.524 144.135 201.685 134.868 203.56Z" fill="#89C5CC"/>
<path fill-rule="evenodd" clip-rule="evenodd" d="M37.496 204.96C37.4691 204.994 37.4421 205.029 37.4157 205.063C37.4421 205.029 37.4691 204.994 37.496 204.96ZM45.9669 200.453C45.9246 200.092 45.8824 199.731 45.8401 199.37C51.6878 202.131 56.3409 207.265 54.3992 214.157C52.9177 219.415 47.565 221.28 42.5781 219.982C37.0577 218.545 34.4196 213.995 35.9081 208.407C36.5948 205.829 38.7036 202.365 41.4294 201.536C42.6983 201.151 45.5045 202.134 45.9669 200.453ZM42.5474 198.27C41.0682 198.37 39.6285 198.986 38.4213 199.829C39.5514 198.873 41.0575 198.304 42.5474 198.27ZM42.5897 194.874C38.9357 194.986 36.5414 197.198 34.3741 199.855C33.694 200.689 31.3943 202.899 31.679 204.023C31.9041 204.911 32.4933 206.21 33.7339 205.22C27.2362 218.17 44.022 229.215 54.2692 220.21C63.8326 211.806 54.3445 194.48 42.5897 194.874Z" fill="#89C5CC"/>
<path fill-rule="evenodd" clip-rule="evenodd" d="M39.2697 206.904C39.2697 208.628 41.9468 208.628 41.9468 206.904C41.9468 205.18 39.2697 205.18 39.2697 206.904Z" fill="#89C5CC"/>
<path fill-rule="evenodd" clip-rule="evenodd" d="M43.8382 207.198C43.8382 208.951 46.5585 208.951 46.5585 207.198C46.5585 205.446 43.8382 205.446 43.8382 207.198Z" fill="#89C5CC"/>
<path fill-rule="evenodd" clip-rule="evenodd" d="M45.9114 213.353C44.6388 213.456 39.9806 213.024 39.163 214.139C37.7966 216.001 39.9774 216.066 41.0485 216.267C42.0133 216.449 46.2072 216.346 46.7982 215.489C47.3205 214.733 47.1984 213.244 45.9114 213.353Z" fill="#89C5CC"/>
<path fill-rule="evenodd" clip-rule="evenodd" d="M102.035 208.522C101.816 208.613 101.816 208.613 102.035 208.522V208.522ZM84.4341 207.235C81.5667 207.446 79.138 209.095 76.3964 209.754C73.47 210.456 72.2034 209.164 69.5426 208.318C66.7745 207.438 64.8055 207.786 62.5806 209.676C61.3201 210.747 58.5543 213.213 59.3422 215.116C61.1464 219.471 65.2303 212.385 67.151 212.056C70.1475 211.541 72.8135 214.161 76.2687 213.412C79.3998 212.733 82.1781 210.583 85.4485 210.56C88.1832 210.541 90.7604 212.037 93.4603 212.399C97.5817 212.952 100.288 211.489 104.098 210.402C107.402 209.46 109.719 210.702 112.826 211.747C114.246 212.225 118.985 213.961 118.113 210.813C117.866 209.924 111.621 208.334 110.653 208.028C107.239 206.949 105.077 207.37 101.824 208.61C99.112 209.644 96.8305 210.148 93.9222 209.579C90.7182 208.952 87.8043 206.979 84.4341 207.235Z" fill="#89C5CC"/>
</g>
<g opacity="0.5">
<path fill-rule="evenodd" clip-rule="evenodd" d="M188.575 64.0118C189.038 54.0554 189.674 44.1128 190.009 34.1503C190.176 29.2136 190.306 24.2764 190.432 19.3387C190.459 18.2393 190.488 17.1403 190.513 16.0408C190.594 12.3055 190.151 12 193.91 11.6684C210.679 10.1882 227.515 9.69761 244.304 8.35839C264.553 6.74327 284.907 5.62803 305.213 5.12814C314.236 4.90556 323.298 4.44462 332.323 4.72517C334.322 4.78731 338.247 4.26702 339.035 5.8214C339.375 6.49286 338.661 8.80356 338.571 9.57843C338.288 11.999 338.024 14.428 337.861 16.8606C336.901 31.208 337.473 45.9171 340.251 60.0471C333.734 56.3721 325.5 53.2109 317.904 53.8383C310.16 54.4778 304.367 58.9522 298.168 63.0705C294.662 65.3997 293.481 66.0123 289.983 63.7559C286.968 61.811 284.116 59.5875 281.272 57.4053C276.883 54.0373 272.741 50.3855 268.485 46.8548C260.66 40.3627 249.878 31.1222 239.07 33.8429C231.348 35.7868 224.218 40.0307 217.516 44.1842C207.558 50.3549 198.545 57.9116 188.575 64.0118ZM322.779 0.30363C284.306 0.30363 246.121 4.0333 207.756 6.05094C203.749 6.26146 199.756 6.57169 195.764 6.95704C193.103 7.21394 186.596 6.13533 184.852 8.40894C183.688 9.92575 184.688 10.1534 184.852 11.5947C185.058 13.411 184.936 15.5632 184.883 17.4857C184.755 22.1183 184.62 26.7503 184.515 31.3833C184.118 48.8933 183.869 66.4 184.578 83.9053C184.733 87.7231 186.124 93.009 185.363 96.7187C184.812 99.4045 182.97 101.039 187.218 101.535C191.398 102.024 196.509 100.781 200.693 100.383C204.901 99.9828 209.108 99.5483 213.321 99.201C231.638 97.6916 250.133 97.9197 268.499 97.418C287.029 96.9121 305.567 96.8796 324.104 96.8694C331.86 96.8652 340.723 97.3011 348.291 95.1666C350.953 94.4154 351.384 94.0454 350.727 91.4036C350.603 90.9023 349.799 90.7173 349.563 89.8112C349.242 88.5782 349.407 87.0794 349.332 85.7959C349.087 81.6039 349.001 77.4044 348.804 73.2096C348.474 66.201 347.266 59.3992 346.372 52.4611C345.341 44.4485 345.394 36.3131 345.373 28.2481C345.361 23.7747 345.476 19.316 345.835 14.8551C346.066 11.9939 347.475 7.72217 346.76 5.05395C346.404 3.7254 345.822 2.67183 344.439 2.10007C343.563 1.73744 342.826 2.02124 341.96 1.92942C340.933 1.82045 340.292 1.67623 339.062 1.39754C333.789 0.20254 328.151 0.30363 322.779 0.30363Z" fill="#69A1AC"/>
<path fill-rule="evenodd" clip-rule="evenodd" d="M301.487 19.3524C301.484 22.1407 301.049 26.2553 302.335 28.8809C303.965 32.2113 306.005 31.1702 306.545 28.0406C306.855 26.2474 306.847 20.9406 306.271 19.3524C305.456 17.1043 301.487 15.5731 301.487 19.3524Z" fill="#89C5CC"/>
<path fill-rule="evenodd" clip-rule="evenodd" d="M306.165 20.429C303.548 20.5213 295.924 19.893 294.153 21.9978C291.115 25.6078 296.404 26.2473 298.675 26.0451C301.303 25.8114 309.423 26.3818 311.183 24.2746C314.127 20.7495 308.224 20.3539 306.165 20.429Z" fill="#89C5CC"/>
<path fill-rule="evenodd" clip-rule="evenodd" d="M204.583 113.579C216.091 115.578 212.511 133.124 201.621 129.06C197.827 127.644 192.237 123.552 194.334 118.731C195.9 115.129 201.006 113.236 204.583 113.579ZM199.818 108.124C192.334 109.384 187.217 117.483 189.783 124.548C192.259 131.363 201.648 136.354 208.573 133.905C215.183 131.566 218.481 122.771 216.253 116.337C213.924 109.614 206.338 107.026 199.818 108.124Z" fill="#89C5CC"/>
<path fill-rule="evenodd" clip-rule="evenodd" d="M269.816 115.632C266.951 115.869 264.475 117.875 261.592 118.231C258.896 118.563 256.662 117.64 254.138 116.903C251.087 116.012 248.289 115.62 245.171 116.412C242.789 117.017 240.439 118.638 237.964 118.834C233.094 119.218 227.434 113.662 223.632 119.946C221.809 122.959 224.456 124.9 227.182 123.495C230.024 122.03 228.629 121.506 232.155 122.371C235.096 123.092 237.474 123.484 240.42 122.473C243.089 121.558 245.433 119.882 248.333 119.694C251.174 119.51 253.645 120.804 256.36 121.362C259.699 122.048 262.653 121.529 265.817 120.482C268.826 119.487 270.027 118.942 273.064 119.83C274.986 120.393 279.187 122.18 281.058 120.74C284.294 118.251 279.962 117.887 278.256 117.533C275.509 116.964 272.667 115.398 269.816 115.632Z" fill="#89C5CC"/>
<path fill-rule="evenodd" clip-rule="evenodd" d="M335.384 113.959C335.407 113.977 335.43 113.995 335.452 114.012C335.43 113.995 335.406 113.977 335.384 113.959ZM332.571 113.371C336.754 113.64 341.277 121.26 335.735 121.531C331.834 121.721 327.469 115.049 332.571 113.371ZM331.984 107.136C318.758 110.829 324.804 129.477 337.562 127.323C343.357 126.344 345.321 119.631 343.405 114.661C342.582 112.527 340.978 110.727 339.061 109.498C337.647 108.592 333.601 106.686 331.984 107.136Z" fill="#89C5CC"/>
<path fill-rule="evenodd" clip-rule="evenodd" d="M270.276 146.065C281.915 145.666 293.555 145.266 305.206 145.158C311.52 145.1 317.8 145.21 324.105 145.572C326.902 145.732 329.696 145.887 332.495 146.005C332.977 146.026 333.644 145.993 334.38 145.957C336.112 145.872 338.227 145.768 339.222 146.294C344.788 149.238 333.448 149.561 332.07 149.538C328.983 149.486 325.899 149.333 322.815 149.181C320.12 149.048 317.425 148.915 314.727 148.848C297.42 148.423 280.008 149.201 262.671 149.975C258.697 150.152 254.727 150.33 250.763 150.492C246.554 150.665 242.347 150.777 238.14 150.888C232.125 151.048 226.111 151.208 220.097 151.546C217.801 151.675 215.505 151.811 213.208 151.948C209.919 152.144 206.63 152.34 203.339 152.513C200.763 152.649 198.186 152.781 195.607 152.846C195.142 152.857 194.537 152.922 193.876 152.992L193.876 152.992H193.876C192.277 153.163 190.353 153.368 189.313 152.943C188.063 152.432 187.052 151.717 187.739 150.201C188.321 148.92 190.434 149.074 191.974 149.186C192.395 149.217 192.773 149.244 193.065 149.238C197.989 149.143 202.902 148.866 207.817 148.565C209.615 148.455 211.412 148.342 213.209 148.229L213.21 148.229L213.21 148.229L213.21 148.229L213.21 148.229C222.567 147.641 231.915 147.053 241.295 146.893C250.959 146.728 260.617 146.396 270.276 146.065ZM331.065 222.668L334.411 222.628C336.139 222.778 336.912 224.592 335.803 225.986C334.953 227.054 331.684 227.102 329.553 227.133C328.962 227.142 328.459 227.15 328.119 227.177C322.556 227.624 317.004 227.825 311.424 227.879C299.674 227.99 287.968 228.494 276.237 229.163C264.229 229.848 252.211 230.105 240.192 230.363H240.191C231.349 230.552 222.506 230.742 213.667 231.101C208.605 231.307 203.542 231.461 198.478 231.594C197.934 231.608 197.21 231.686 196.391 231.774C193.192 232.12 188.544 232.622 187.491 230.081C186.556 227.827 187.855 226.789 189.755 226.317C189.455 224.982 189.511 223.106 189.543 222.031C189.552 221.708 189.56 221.457 189.555 221.315C189.507 219.968 189.473 218.62 189.44 217.272C189.402 215.745 189.365 214.218 189.306 212.691C189.253 211.306 189.203 209.919 189.153 208.531C188.957 203.059 188.761 197.573 188.34 192.123C188.145 189.607 187.837 187.121 187.529 184.639C187.038 180.676 186.547 176.723 186.525 172.678C186.521 171.95 186.484 171.04 186.443 170.013C186.233 164.761 185.901 156.457 189.161 153.928C194.91 150.573 193.774 160.256 193.266 164.577C193.183 165.291 193.116 165.858 193.1 166.197C192.77 173.382 193.218 180.252 193.942 187.392C194.43 192.214 194.145 197.02 193.859 201.834C193.757 203.553 193.655 205.273 193.588 206.996C193.555 207.848 193.526 208.7 193.496 209.551C193.406 212.172 193.315 214.791 193.118 217.409C193.096 217.692 193.089 218.235 193.08 218.929C193.054 220.886 193.013 224.044 192.594 225.961C193.486 225.922 194.352 225.932 195.067 225.94C195.523 225.945 195.917 225.949 196.219 225.94C197.591 225.898 198.964 225.858 200.337 225.818C204.39 225.699 208.444 225.58 212.497 225.428C222.065 225.068 231.636 224.948 241.207 224.828C252.512 224.686 263.816 224.544 275.115 224.007C293.737 223.122 312.423 222.895 331.065 222.668ZM334.519 152.42C334.509 164.729 335.461 176.7 336.573 188.96C337.261 196.543 337.812 204.155 338.251 211.757C338.272 212.109 338.268 212.696 338.265 213.432V213.433C338.242 217.637 338.194 226.695 342.349 224.528C345.486 222.892 344.28 213.405 343.613 208.155L343.613 208.155C343.467 207.004 343.346 206.056 343.303 205.44C343.212 204.127 343.122 202.814 343.032 201.502C342.614 195.408 342.197 189.318 341.647 183.231L341.531 181.947C340.895 174.917 340.259 167.891 340.146 160.827C340.137 160.243 340.193 159.43 340.257 158.51C340.44 155.851 340.685 152.31 339.58 150.898C338.026 148.911 334.522 149.498 334.519 152.42Z" fill="#69A1AC"/>
<path fill-rule="evenodd" clip-rule="evenodd" d="M270.808 182.595C285.674 175.869 300.714 169.065 316.174 164.22C317.291 163.87 317.998 165.022 317.744 165.989C317.482 166.985 315.064 167.835 313.46 168.399C312.98 168.568 312.573 168.711 312.319 168.824C310.16 169.789 307.995 170.741 305.83 171.694C303.613 172.669 301.396 173.645 299.185 174.633C294.587 176.687 289.985 178.732 285.383 180.778C280.454 182.968 275.526 185.158 270.602 187.36C270.416 187.443 270.229 187.527 270.043 187.61C276.737 189.989 283.393 192.474 290.02 195.035C292.285 195.909 294.542 196.802 296.799 197.696C298.075 198.201 299.352 198.706 300.631 199.208C301.047 199.371 301.772 199.593 302.643 199.859C305.481 200.725 309.871 202.066 310.196 203.42C310.724 205.626 304.662 203.492 302.375 202.687C302.072 202.58 301.835 202.497 301.689 202.45C298.314 201.371 294.98 200.17 291.648 198.968L291.186 198.802C288.545 197.851 285.908 196.889 283.271 195.927C278.119 194.049 272.968 192.17 267.788 190.368C267.056 190.113 266.323 189.859 265.59 189.606C257.278 193.34 248.982 197.109 240.714 200.938C236.28 202.992 231.871 205.093 227.473 207.222C226.513 207.687 225.325 208.405 224.033 209.186C220.939 211.056 217.255 213.282 214.721 213.227C213.362 213.197 212.446 212.906 212.304 211.259C212.158 209.559 214.339 208.668 215.907 208.027C216.282 207.873 216.622 207.734 216.887 207.602C221.587 205.251 226.316 202.96 231.059 200.698C240.479 196.205 249.987 191.891 259.529 187.663C259.583 187.639 259.638 187.615 259.693 187.59C254.401 185.799 249.095 184.051 243.777 182.34C243.246 182.169 242.157 181.867 240.726 181.471C233.965 179.599 219.563 175.61 220.204 173.28C220.939 170.615 234.442 175.486 240.419 177.643C241.54 178.047 242.396 178.356 242.854 178.502C250.001 180.779 257.128 183.121 264.218 185.57C266.411 184.584 268.608 183.591 270.808 182.595Z" fill="#89C5CC"/>
<path fill-rule="evenodd" clip-rule="evenodd" d="M207.108 241.133C211.459 241.896 214.529 246.071 214.052 250.442C213.406 256.349 207.519 259.056 202.08 258.286C195.909 257.411 194.611 252.194 197.601 247.176C198.263 246.065 199.024 244.735 200.228 244.15C201.055 243.748 202.109 244.103 202.775 243.779C205.111 242.643 203.706 240.831 207.108 241.133ZM205.126 237.275C199.816 237.953 190.004 244.098 190.501 250.246C190.932 250.959 191.58 251.25 192.445 251.121C192.237 252.453 192.305 253.77 192.649 255.074C193.153 256.766 194.159 258.153 195.508 259.254C198.285 261.524 202.081 262.081 205.539 261.683C211.996 260.941 217.084 256.528 217.447 249.812C217.801 243.257 212.079 236.397 205.126 237.275Z" fill="#89C5CC"/>
<path fill-rule="evenodd" clip-rule="evenodd" d="M230.846 245.275C228.463 246.537 224.694 248.477 223.297 250.875C221.821 253.408 223.349 256.179 226.459 254.981C228.928 254.03 230.498 251.008 233.132 250.039C235.456 249.184 236.392 249.62 238.849 250.471C241.38 251.348 243.592 252.196 246.328 251.98C249.767 251.71 252.745 249.716 256.111 249.263C258.945 248.881 261.282 249.983 263.996 250.422C267.145 250.931 269.204 249.739 272.15 249.118C274.154 248.696 277.686 250.414 279.148 249.771C282.434 248.326 278.957 246.56 277.138 245.976C274.073 244.993 272.187 245.86 269.272 246.676C266.107 247.561 264.74 246.895 261.714 246.082C255.593 244.438 250.864 248.415 245.062 247.692C239.691 247.022 236.476 242.293 230.846 245.275Z" fill="#89C5CC"/>
<path fill-rule="evenodd" clip-rule="evenodd" d="M330.935 242.336C336.827 247.86 330.208 255.719 323.712 251.304C321.426 249.751 321.389 247.255 323.168 245.022C324.796 242.98 328.371 242.184 330.935 242.336ZM328.751 237.872C323.247 238.943 318.054 241.469 317.556 247.822C317.07 254.02 323.428 256.899 328.769 256.493C340.76 255.579 339.893 235.718 328.751 237.872Z" fill="#89C5CC"/>
</g>
<path opacity="0.5" fill-rule="evenodd" clip-rule="evenodd" d="M377.61 116.686C375.075 116.742 368.816 117.787 367.885 121.188C367.179 123.77 369.277 123.203 370.402 122.264C371.923 120.993 373.257 120.233 375.142 119.847C382.323 118.373 389.222 123.656 396.334 124.324C399.028 124.577 402.279 124.742 404.851 123.753C406.683 123.048 406.922 121.512 404.832 121.278C403.056 121.079 401.09 121.705 399.269 121.687C391.735 121.614 385.037 116.525 377.61 116.686Z" fill="#C1DEE2"/>
<g opacity="0.5">
<path fill-rule="evenodd" clip-rule="evenodd" d="M54.9726 262.032C46.5484 262.126 38.1283 262.437 29.7208 262.969C21.7254 263.476 13.0504 263.091 5.18528 264.641C2.95195 265.081 -0.0649186 267.117 2.90466 269.355C4.99194 270.929 12.6285 269.119 15.121 268.966C24.3 268.402 33.4837 267.726 42.6757 267.401C51.3776 267.093 60.0791 266.985 68.7852 266.898C70.1145 266.885 72.3209 266.459 73.6446 266.845C75.5464 267.4 75.0953 267.55 75.2376 269.964C75.4959 274.338 75.4245 278.728 75.3378 283.107C75.2539 287.343 75.0972 291.58 75.1124 295.818C75.1231 298.842 74.1564 304.852 75.6739 307.478C77.8581 311.258 80.1239 307.152 80.2871 304.64C80.5996 299.835 80.4595 294.972 80.4609 290.161C80.4619 285.646 80.4943 281.13 80.3353 276.617C80.2198 273.357 80.6858 267.666 78.9296 264.702C77.1408 261.683 72.8342 262.334 69.6916 262.19C64.7896 261.965 59.8788 261.981 54.9726 262.032Z" fill="#89C5CC"/>
<path fill-rule="evenodd" clip-rule="evenodd" d="M1.37324 267.481C1.38252 275.965 0.401002 284.392 0.126067 292.867C-4.1306e-05 296.763 -0.255967 301.041 0.729719 304.866C1.72468 308.728 4.88481 309.565 5.24876 305.254C5.98594 296.523 5.80512 287.47 6.3791 278.67C6.58171 275.562 7.90029 269.868 6.66934 266.959C5.58536 264.396 1.36861 263.904 1.37324 267.481Z" fill="#89C5CC"/>
<path fill-rule="evenodd" clip-rule="evenodd" d="M80.3696 304.878C65.7396 306.814 50.4452 306.108 35.7109 306.413C28.6419 306.559 21.5742 306.568 14.5043 306.642C12.0368 306.667 5.77081 305.729 3.63624 307.116C0.238263 309.324 3.92508 311.028 6.17464 311.077C20.1268 311.382 34.2342 310.741 48.1836 310.283C54.451 310.077 60.7388 309.977 66.9895 309.444C70.8377 309.116 75.0429 308.798 78.7798 307.764C79.5758 307.544 81.3093 307.59 81.4878 306.504C81.5977 305.832 81.3984 304.736 80.3696 304.878Z" fill="#89C5CC"/>
<path fill-rule="evenodd" clip-rule="evenodd" d="M19.5338 317.21C15.4677 317.234 3.21482 315.345 1.5309 319.31C-0.71402 324.598 8.04357 323.364 10.3988 323.304C15.7482 323.166 21.0939 323.151 26.4447 323.154C31.6949 323.156 36.9447 323.122 42.1939 322.997C43.7147 322.961 47.2545 323.592 48.1294 321.761C48.7942 320.369 48.2689 319.271 47.0426 318.534C44.0921 316.761 36.4268 317.789 32.9723 317.63C28.4996 317.424 24.0121 317.21 19.5338 317.21Z" fill="#89C5CC"/>
<path fill-rule="evenodd" clip-rule="evenodd" d="M69.0003 318.189C66.6766 318.328 61.9762 317.37 59.8945 318.433C57.5286 319.642 58.3622 321.534 60.405 322.366C61.8195 322.942 67.6224 322.64 69.0003 321.973C70.4366 321.277 72.0608 318.001 69.0003 318.189Z" fill="#89C5CC"/>
<path fill-rule="evenodd" clip-rule="evenodd" d="M94.4764 268.313C91.9946 268.994 92.7475 283.084 92.6835 285.318C92.5083 291.437 91.8202 299.134 93.8537 305.028C95.1505 308.785 97.6412 308.276 97.2169 304.32C96.8442 300.848 96.2048 297.416 95.928 293.922C95.3021 286.015 94.4504 277.581 95.0416 269.667C95.2933 270.127 97.6477 274.392 98.2017 274.074C98.0343 274.173 95.4862 268.047 94.4764 268.313Z" fill="#89C5CC"/>
<path fill-rule="evenodd" clip-rule="evenodd" d="M122.394 263.124C117.371 263.198 112.349 263.287 107.327 263.426C103.335 263.537 97.0616 262.881 93.4003 264.561C89.0407 266.56 91.109 271.015 95.2038 271.109C98.8262 271.193 102.689 270.376 106.344 270.251C116.218 269.913 126.108 269.841 135.986 269.756C144.919 269.679 154.232 270.632 163.087 269.291C164.401 280.953 160.848 292.665 162.057 304.462C162.244 306.293 162.16 308.88 164.492 309.297C167.434 309.824 167.555 306.909 167.667 304.822C167.986 298.863 167.813 292.899 168.249 286.932C168.654 281.402 169.45 275.751 168.777 270.212C167.95 263.397 164.684 263.943 158.911 263.66C146.718 263.062 134.6 262.944 122.394 263.124Z" fill="#89C5CC"/>
<path fill-rule="evenodd" clip-rule="evenodd" d="M105.561 304.537C103.002 304.601 98.7514 303.812 97.1116 306.266C95.4054 308.82 97.4296 311.047 99.9105 311.571C102.847 312.191 106.676 311.341 109.724 311.332C112.898 311.322 116.073 311.358 119.247 311.37C132.855 311.424 146.522 311.63 160.12 311.067C162.019 310.988 167.409 311.625 168.724 309.804C169.89 308.188 169.074 306.739 167.538 305.916C165.018 304.565 159.841 305.079 157.038 304.972C153.576 304.84 150.11 304.797 146.646 304.743C132.975 304.532 119.232 304.198 105.561 304.537Z" fill="#89C5CC"/>
<path fill-rule="evenodd" clip-rule="evenodd" d="M117.073 316.34C111.98 316.427 106.547 316.204 101.505 316.976C97.0715 317.655 96.5258 321.941 101.298 322.442C105.684 322.903 111 322.042 115.407 321.759C116.973 321.658 118.793 321.801 119.543 320.071C120.326 318.263 118.829 316.529 117.073 316.34Z" fill="#89C5CC"/>
<path fill-rule="evenodd" clip-rule="evenodd" d="M155.572 316.79C152.854 316.858 144.914 315.69 143.568 318.794C141.327 323.963 152.075 321.999 154.137 321.923C156.735 321.827 166.863 323.345 166.866 319.208C166.868 315.151 158.061 316.729 155.572 316.79Z" fill="#89C5CC"/>
<path fill-rule="evenodd" clip-rule="evenodd" d="M0.933705 342.474C0.940196 351.877 0.35509 361.367 1.21281 370.746C1.56749 374.625 1.50676 382.056 3.75353 385.344C5.34843 387.679 7.56043 387.515 8.4316 384.712C9.01392 382.838 8.08248 379.091 7.97863 377.086C7.87848 375.163 7.76165 373.24 7.67263 371.316C7.44406 366.358 7.46214 361.409 7.53029 356.449C7.58871 352.194 8.61288 346.566 7.64713 342.474C6.74675 338.661 0.933705 337.769 0.933705 342.474Z" fill="#69A1AC"/>
<path fill-rule="evenodd" clip-rule="evenodd" d="M95.4304 334.202C79.1174 334.611 62.7678 334.246 46.4692 335.053C38.4312 335.451 30.4247 336.326 22.427 337.198C18.4977 337.626 14.5707 338.068 10.6484 338.551C9.46471 338.697 -0.370822 339.078 3.32852 342.819C4.94382 344.452 10.0841 342.746 12.1181 342.505C16.0562 342.04 20.0022 341.635 23.9459 341.218C31.4503 340.424 38.9639 339.672 46.5003 339.255C64.2496 338.272 82.0722 338.567 99.8391 337.911C104.645 337.734 109.437 337.607 114.245 337.796C115.507 337.846 124.784 338.317 120.756 334.891C118.852 333.27 111.671 334.106 109.29 334.057C104.671 333.962 100.048 334.086 95.4304 334.202Z" fill="#69A1AC"/>
<path fill-rule="evenodd" clip-rule="evenodd" d="M117.669 350.044C117.588 345.699 117.508 341.355 117.31 337.015C117.102 332.443 123.328 331.751 125.175 335.451C126.504 338.115 126.27 342.647 126.07 346.532C125.989 348.097 125.914 349.558 125.949 350.748C126.028 353.477 126.229 356.298 126.432 359.157C126.944 366.35 127.472 373.782 126.128 380.572C125.474 383.872 122.69 385.607 120.837 383.808C120.835 383.812 120.832 383.815 120.83 383.819C120.133 384.846 117.963 384.844 116.366 384.842C115.926 384.842 115.529 384.841 115.218 384.863C110.841 385.16 106.545 385.662 102.207 386.312C93.563 387.608 84.9941 388.404 76.2564 388.621C70.3278 388.767 64.3908 388.816 58.4523 388.866C47.0807 388.96 35.7033 389.055 24.3679 389.832C20.5461 390.095 16.7823 390.545 13.0232 391.264C12.7032 391.326 12.3479 391.405 11.9696 391.489C9.17452 392.11 5.12811 393.01 4.85165 389.104C4.52303 384.468 14.5711 383.861 19.7419 383.548C20.5314 383.5 21.2072 383.46 21.715 383.412C37.4155 381.952 53.3624 382.178 69.1296 382.402C69.8936 382.413 70.6572 382.423 71.4203 382.434C72.6507 382.451 73.8808 382.471 75.1106 382.492C81.8615 382.603 88.6043 382.714 95.3531 382.301C98.4241 382.113 101.535 382.017 104.652 381.92C109.625 381.766 114.613 381.611 119.476 381.084C118.743 378.24 118.615 374.884 118.494 371.721C118.447 370.489 118.401 369.287 118.32 368.155C117.893 362.126 117.781 356.085 117.669 350.044Z" fill="#69A1AC"/>
<path fill-rule="evenodd" clip-rule="evenodd" d="M130.871 340.363C128.668 340.663 126.83 342.549 127.813 344.941C129.053 347.953 132.744 346.776 135.182 346.586C142.932 345.978 151.024 347.191 158.68 346.276C160.771 346.026 163.805 344.887 161.928 342.077C160.516 339.966 155.375 340.336 153.189 340.134C145.714 339.443 138.337 339.627 130.871 340.363Z" fill="#C1DEE2"/>
<path fill-rule="evenodd" clip-rule="evenodd" d="M143.952 353.504C140.946 353.706 133.949 353.547 132.683 356.967C130.411 363.102 139.31 360.94 142.02 360.591C145.167 360.186 152.587 361.271 154.263 358.219C157.26 352.761 146.588 353.322 143.952 353.504Z" fill="#C1DEE2"/>
<path fill-rule="evenodd" clip-rule="evenodd" d="M136.223 366.968C134.797 368.394 134.795 370.942 136.223 372.368C137.971 374.115 141.78 373.752 144.078 373.88C147.282 374.059 156.484 375.753 158.076 371.98C160.222 366.89 151.889 366.996 149.148 366.707C145.98 366.374 138.848 364.341 136.223 366.968Z" fill="#C1DEE2"/>
<path fill-rule="evenodd" clip-rule="evenodd" d="M23.9008 279.829C23.9008 285.302 32.4488 285.302 32.4488 279.829C32.4488 274.385 23.9008 274.302 23.9008 279.829Z" fill="#89C5CC"/>
<path fill-rule="evenodd" clip-rule="evenodd" d="M40.1148 279.891C40.1148 286.148 49.8512 286.135 49.8512 279.891C49.8512 273.656 40.1148 273.592 40.1148 279.891Z" fill="#89C5CC"/>
<path fill-rule="evenodd" clip-rule="evenodd" d="M30.3061 288.21C25.5733 289.517 29.9333 293.528 32.131 294.444C35.6235 295.901 40.3901 296.974 43.8836 294.79C45.2736 293.922 46.4021 292.767 45.3835 291.081C44.2981 289.285 42.8122 290.084 41.1598 290.249C39.0665 290.46 37.3747 290.428 35.3532 289.756C33.8445 289.255 31.9515 287.757 30.3061 288.21Z" fill="#89C5CC"/>
<path fill-rule="evenodd" clip-rule="evenodd" d="M116.154 280.175C116.154 283.877 121.902 283.877 121.902 280.175C121.902 276.473 116.154 276.473 116.154 280.175Z" fill="#89C5CC"/>
<path fill-rule="evenodd" clip-rule="evenodd" d="M128.866 280.733C128.866 284.845 135.251 284.846 135.251 280.733C135.251 276.619 128.866 276.62 128.866 280.733Z" fill="#89C5CC"/>
<path fill-rule="evenodd" clip-rule="evenodd" d="M128.393 289.658C125.038 290.091 115.337 291.074 114.794 295.209C113.957 301.588 124.587 296.425 127.013 295.924C130.103 295.286 132.863 295.453 135.948 295.577C137.641 295.644 139.894 295.919 139.717 293.339C139.425 289.102 131.325 289.283 128.393 289.658Z" fill="#89C5CC"/>
<path fill-rule="evenodd" clip-rule="evenodd" d="M44.0553 348.485C41.624 349.133 38.4435 353.337 40.1163 355.909C42.8591 360.128 44.0688 353.65 45.2167 353.027C47.3054 351.892 49.0009 356.038 51.1837 353.863C54.628 350.432 46.2237 347.904 44.0553 348.485Z" fill="#69A1AC"/>
<path fill-rule="evenodd" clip-rule="evenodd" d="M71.914 345.366C69.0306 345.392 62.9436 349.475 62.5124 352.489C62.2565 354.28 63.4438 356 65.3744 356.024C68.0032 356.056 68.8387 352.638 71.1174 351.924C73.5756 351.153 73.2107 352.928 75.3337 353.848C76.8874 354.522 78.8305 354.24 79.3701 352.33C80.3883 348.727 74.8766 345.309 71.914 345.366Z" fill="#69A1AC"/>
<path fill-rule="evenodd" clip-rule="evenodd" d="M49.8433 362.624C45.2315 365.327 52.8198 371.119 55.4505 371.844C59.4219 372.937 67.415 370.897 68.3562 366.045C68.7308 364.114 67.523 362.366 65.3922 362.711C63.6378 362.996 62.5125 365.197 60.8875 365.985C58.694 367.049 56.744 366.976 54.8802 365.375C53.3618 364.07 52.5486 361.046 49.8433 362.624Z" fill="#69A1AC"/>
<path fill-rule="evenodd" clip-rule="evenodd" d="M53.1858 402.556C49.0655 403.434 44.877 402.845 40.7367 403.671C36.5149 404.514 33.9918 406.109 30.0694 404.502C29.8849 404.424 29.7009 404.346 29.5168 404.268C26.4809 402.961 23.299 402.573 20.1212 404.657C18.2407 405.89 12.532 410.156 13.22 412.759C14.7111 418.402 21.1347 409.553 22.7728 408.691C25.8963 407.047 28.0378 409.147 31.2536 409.74C35.1054 410.451 38.2048 408.415 41.8332 407.605C46.0769 406.656 50.8509 406.326 55.1683 405.819C56.874 405.618 63.3347 406.967 63.918 404.844C64.9199 401.198 54.8053 402.212 53.1858 402.556Z" fill="#C1DEE2"/>
<path fill-rule="evenodd" clip-rule="evenodd" d="M82.913 413.92C83.1823 414.124 82.9663 413.96 82.913 413.92V413.92ZM94.4528 402.335C97.9801 401.977 109.266 399.457 111.583 403.102C113.092 405.476 110.697 414.239 108.412 415.372C106.586 416.277 102.332 415.276 100.328 415.205C96.5999 415.074 92.8635 415.016 89.1391 414.783C87.8901 414.705 83.8708 414.935 82.8916 413.83C81.7353 412.524 81.7868 405.565 81.5146 403.84C84.7578 404.889 91.0618 402.679 94.4528 402.335ZM101.985 398.761C97.4674 398.957 92.9506 399.297 88.4668 399.902C85.9674 400.24 83.435 401.138 81.1266 401.564C80.3824 401.701 79.1747 401.321 78.2622 401.761C75.5959 403.049 77.9307 411.759 78.5738 414.086C79.5613 417.66 82.0469 418.239 85.5292 418.576C90.1164 419.02 94.7978 418.88 99.3993 418.824C103.835 418.77 109.816 419.753 112.305 415.302C113.913 412.424 115.639 405.723 114.264 402.516C112.455 398.296 105.7 398.605 101.985 398.761Z" fill="#C1DEE2"/>
<path fill-rule="evenodd" clip-rule="evenodd" d="M152.574 416.314C152.333 416.624 152.333 416.624 152.574 416.314V416.314ZM153.564 415.121C153.49 415.234 153.143 415.6 153.564 415.121V415.121ZM142.791 414.793C144.782 414.418 146.774 414.047 148.768 413.683C146.88 416.326 144.892 415.234 141.667 415.004C142.042 414.933 142.416 414.863 142.791 414.793ZM133.29 413.857C133.795 413.689 134.299 413.52 134.804 413.351C134.789 413.735 134.872 414.095 135.052 414.43C134.188 414.337 133.324 414.236 132.462 414.13C132.738 414.039 133.014 413.948 133.29 413.857ZM128.887 410.606C128.859 409.913 129.902 410.389 130.499 410.342C129.347 411.357 128.81 411.445 128.887 410.606ZM144.633 402.742C144.784 402.549 144.985 402.558 145.235 402.771C144.963 402.863 143.912 403.308 144.633 402.742ZM154.844 401.541C154.871 401.541 155.437 402.306 154.844 401.541V401.541ZM154.557 401.291C154.706 401.404 154.706 401.404 154.557 401.291V401.291ZM153.283 401.142C155.371 401.494 155.212 403.944 153.283 401.142V401.142ZM128.754 400.975C128.33 401.327 128.475 400.985 128.754 400.975V400.975ZM136.739 395.758C133.194 395.965 126.688 395.757 123.728 397.645C119.865 400.11 121.897 408.596 122.243 412.316C122.754 417.814 125.341 419.38 130.519 419.957C136.699 420.646 143.049 420.775 149.26 420.611C154.855 420.464 158.041 418.54 159.065 412.65C159.379 410.848 160.176 408.06 160.151 406.334C160.134 405.136 159.537 404.59 159.311 403.572C158.026 397.775 155.878 397.088 149.936 396.835C145.563 396.649 141.03 395.534 136.739 395.758Z" fill="#89C5CC"/>
</g>
<g opacity="0.5">
<path fill-rule="evenodd" clip-rule="evenodd" d="M266.032 279.913C275.044 280.105 285.268 285.092 283.843 295.658C282.799 303.399 276.098 309.682 268.336 310.224C259.994 310.806 251.174 304.404 250.041 295.91C248.766 286.357 257.22 279.722 266.032 279.913ZM261.613 275.612C257.959 276.157 254.468 278.076 251.251 279.794C250.023 280.45 243.798 284.451 248.681 285.445C236.916 304.419 264.603 322.043 280.17 309.712C287.161 304.174 290.841 293.675 286.322 285.457C281.649 276.957 270.566 274.267 261.613 275.612Z" fill="#89C5CC"/>
<path fill-rule="evenodd" clip-rule="evenodd" d="M259.459 291.762C259.459 295.305 264.96 295.305 264.96 291.762C264.96 288.218 259.459 288.218 259.459 291.762Z" fill="#89C5CC"/>
<path fill-rule="evenodd" clip-rule="evenodd" d="M269.657 292.329C269.657 296.171 275.621 296.171 275.621 292.329C275.621 288.487 269.657 288.487 269.657 292.329Z" fill="#89C5CC"/>
<path fill-rule="evenodd" clip-rule="evenodd" d="M262.775 299.927C261.973 302.842 271.123 304.337 271.428 300.963C271.573 299.352 263.333 297.894 262.775 299.927Z" fill="#89C5CC"/>
<path fill-rule="evenodd" clip-rule="evenodd" d="M289.599 298.126C300.129 296.862 310.985 297.446 321.565 297.749C324.213 297.826 326.86 297.9 329.509 297.944C331.192 297.972 334.828 298.78 336.298 297.992C342.315 294.765 330.511 293.205 328.84 293.057C318.316 292.191 302.075 291.882 291.52 292.29C288.398 292.411 287.723 298.351 289.599 298.126Z" fill="#89C5CC"/>
<path fill-rule="evenodd" clip-rule="evenodd" d="M336.98 350.469C337.07 339.436 337.466 328.33 338.314 317.33C338.659 312.847 339.074 308.37 339.417 303.886C339.579 301.774 340.329 298.817 339.088 296.964C337.809 295.054 335.003 294.657 333.312 296.349C331.288 298.97 331.876 303.367 331.624 306.537C331.237 311.41 330.77 316.28 330.537 321.163C330.088 330.616 329.983 340.233 330.743 349.673C331.102 354.127 331.879 358.473 332.914 362.817C333.385 364.795 337.132 373.603 336.345 374.818C335.124 376.702 326.099 375.99 324.141 376.042C319.117 376.177 314.092 376.265 309.067 376.361C304.765 376.443 300.463 376.502 296.16 376.54C294.452 376.555 284.414 376.251 286.641 378.784C261.741 380.519 236.366 377.622 211.618 376.629C210.368 376.578 208.323 376.223 206.435 376.121C206.209 375.209 206.023 374.394 205.977 373.828C205.652 369.851 205.567 365.86 205.214 361.884C204.569 354.608 203.318 347.406 202.574 340.144C201.831 332.889 201.906 325.612 201.473 318.339C201.399 317.092 201.224 306.884 198.648 304.404C199.869 304.867 201.839 304.928 202.973 304.836C212.153 304.095 221.266 302.5 230.368 301.131C232.972 300.74 238.881 301.017 241.041 299.716C242.91 298.588 243.65 294.638 240.398 294.958C231.322 295.93 222.296 297.439 213.292 298.924C210.883 299.321 208.481 299.746 206.079 300.18C204.475 300.47 200.241 300.448 198.997 301.415C197.486 302.589 197.326 303.388 197.838 303.919C197.126 303.723 196.273 304.031 195.248 305.056C193.31 307.578 195.132 313.789 195.363 316.745C195.64 320.292 195.777 323.845 195.938 327.399C196.25 334.275 196.97 341.056 198.076 347.849C199.316 355.46 200.371 363.102 201.614 370.71C201.937 372.691 202.359 374.623 202.898 376.536C199.549 378.249 201.826 380.973 204.481 381.456C204.5 381.459 204.52 381.462 204.539 381.466C205.367 383.485 206.525 385.355 207.429 382.65C207.498 382.442 207.531 382.187 207.539 381.9C214.398 382.676 221.938 382.194 228.691 382.47C243.319 383.068 258.037 383.965 272.68 383.51C278.477 383.33 284.291 382.815 290.039 382.042C293.407 381.588 296.788 381.048 300.102 380.297C300.339 380.243 300.7 380.187 301.117 380.118C301.185 380.116 301.254 380.114 301.318 380.113C306.393 380.037 311.463 379.901 316.533 379.69C320.789 379.513 325.064 379.422 329.306 379.021C331.941 378.772 337.51 378.818 339.127 376.168C340.598 373.759 338.139 367.552 337.79 364.846C337.176 360.08 336.941 355.27 336.98 350.469Z" fill="#C1DEE2"/>
<path fill-rule="evenodd" clip-rule="evenodd" d="M285.556 318.614C281.501 318.961 277.752 320.865 273.66 320.889C270.225 320.908 266.844 319.882 263.39 320.033C259.339 320.21 257.11 322.83 253.562 323.706C250.737 324.404 248.957 322.241 246.472 321.285C243.335 320.077 241.017 320.7 238.328 322.527C236.352 323.87 231.744 326.883 231.78 329.599C231.886 337.825 241.483 326.462 243.417 326.324C245.988 326.141 248.86 329.071 251.595 329.238C255.211 329.459 257.529 327.128 260.859 326.279C264.226 325.42 267.866 326.472 271.242 326.799C275.093 327.171 278.464 326.313 282.19 325.393C285.801 324.502 288.878 324.55 292.547 325.298C295.023 325.803 301.192 328.739 302.276 324.964C303.751 319.823 288.39 318.372 285.556 318.614Z" fill="#89C5CC"/>
<path fill-rule="evenodd" clip-rule="evenodd" d="M286.79 334.302C278.482 335.108 270.123 335.816 261.777 336.042C258.162 336.14 244.266 334.591 245.498 339.185C246.555 343.123 265.465 340.643 269.317 340.343C273.569 340.013 277.814 339.551 282.046 339.016C283.545 338.826 287.166 339.022 288.224 337.765C289.233 336.565 288.736 334.108 286.79 334.302Z" fill="#89C5CC"/>
<path fill-rule="evenodd" clip-rule="evenodd" d="M229.475 355.221C229.286 355.301 229.286 355.301 229.475 355.221V355.221ZM231.228 355.197C233.299 355.132 232.855 354.039 234.921 354.609C235.874 354.871 235.972 354.482 236.711 355.392C238.152 357.169 236.795 361.039 235.374 362.471C230.113 367.773 223.799 355.433 231.228 355.197ZM231.228 349.995C216.825 350.479 222.851 372.728 235.387 368.186C240.564 366.311 243.818 357.861 240.773 353.112C239.292 350.802 237.403 350.391 234.921 350.231C234.345 350.194 233.62 351.031 233.261 350.993C232.406 350.903 232.486 349.948 231.228 349.995Z" fill="#89C5CC"/>
<path fill-rule="evenodd" clip-rule="evenodd" d="M265.671 355.983C265.414 355.904 270.219 357.301 269.693 356.754C270.815 357.921 269.306 360.679 268.037 361.161C264.964 362.328 263.24 357.549 265.671 355.983ZM267.803 349.95C263.293 350.589 259.813 352.467 259.196 357.482C258.628 362.111 261.755 366.799 266.689 366.889C277.442 367.086 277.769 348.56 267.803 349.95Z" fill="#89C5CC"/>
<path fill-rule="evenodd" clip-rule="evenodd" d="M316.893 356.186C317.522 364.406 308.999 356.882 316.893 356.186V356.186ZM313.235 347.391C312.489 348.666 313.125 350.018 314.25 350.759C304.196 352.884 306.473 368.013 316.704 365.778C321.907 364.641 322.863 359.17 322.088 354.653C321.719 352.505 316.366 342.038 313.235 347.391Z" fill="#89C5CC"/>
</g>
<path opacity="0.5" fill-rule="evenodd" clip-rule="evenodd" d="M307.309 327.769C305.584 328.117 301.505 330.278 301.541 332.6C301.596 336.223 305.063 332.265 305.834 331.733C309.976 328.874 315.341 332.579 319.655 333.367C321.632 333.729 325.501 334.397 327.247 332.893C330.354 330.22 323.17 330.889 322.255 330.782C317.282 330.199 312.334 326.751 307.309 327.769Z" fill="#C1DEE2"/>
<g opacity="0.5">
<path fill-rule="evenodd" clip-rule="evenodd" d="M428.466 256.02C428.463 261.698 428.176 267.494 429.222 273.104C429.539 274.802 429.789 278.055 431.581 278.937C433.381 279.822 435.126 278.827 435.573 276.983C436.095 274.836 434.95 271.624 434.834 269.37C434.675 266.292 434.665 263.209 434.663 260.127C434.662 257.902 435.395 254.321 432.767 253.176C430.813 252.324 428.466 253.907 428.466 256.02Z" fill="#C1DEE2"/>
<path fill-rule="evenodd" clip-rule="evenodd" d="M518.233 247.039C499.42 248.927 480.337 249.32 461.456 250.304C452.728 250.759 442.181 250.179 433.958 253.557C432.432 254.185 426.963 257.676 431.403 259.098C432.787 259.542 434.192 258.051 435.329 257.551C437.221 256.72 439.412 256.463 441.43 256.139C458.586 253.384 476.531 253.863 493.864 252.576C498.305 252.246 502.748 251.906 507.18 251.47C510.347 251.159 517.002 248.877 519.924 250.044C524.917 252.038 524.8 264.998 524.899 269.455C524.95 271.76 522.713 280.035 527.16 279.196C530.72 278.524 529.431 269.929 529.154 267.577C528.426 261.414 527.184 246.132 518.233 247.039Z" fill="#C1DEE2"/>
<path fill-rule="evenodd" clip-rule="evenodd" d="M525.171 278.897C508.83 280.373 492.112 278.925 475.704 279.505C467.103 279.81 458.512 280.294 449.91 280.578C446.19 280.702 442.466 280.707 438.744 280.733C436.964 280.745 428.862 281.824 433.874 285.354C436.093 286.916 443.165 285.658 445.711 285.627C449.535 285.582 453.358 285.423 457.179 285.274C466.032 284.928 474.879 284.448 483.736 284.208C492.208 283.979 500.685 283.93 509.156 283.7C513.372 283.586 517.645 283.457 521.823 282.841C522.766 282.702 525.828 282.592 526.483 281.54C527.101 280.546 526.667 278.753 525.171 278.897Z" fill="#89C5CC"/>
<path fill-rule="evenodd" clip-rule="evenodd" d="M444.858 266.628C444.77 266.836 444.77 266.836 444.858 266.628V266.628ZM451.935 264.478C452.193 264.587 452.193 264.587 451.935 264.478V264.478ZM451.603 264.418C455.417 268.305 449.552 272.945 445.98 269.151C442.188 265.125 449.148 264.431 451.603 264.418ZM447.559 258.537C434.423 260.875 439.074 278.381 451.342 275.851C456.728 274.74 459.809 269.314 457.955 264.102C457.23 262.066 455.652 259.831 453.453 259.189C452.357 258.869 451.387 259.373 450.343 259.255C449.348 259.143 448.795 258.314 447.559 258.537Z" fill="#C1DEE2"/>
<path fill-rule="evenodd" clip-rule="evenodd" d="M497.83 263.465C489.909 263.49 481.986 263.826 474.067 263.976C471.637 264.022 465.394 262.935 465.384 266.765C465.374 270.857 472.328 269.345 474.643 269.29C482.499 269.102 490.374 268.758 498.199 268.01C500.175 267.821 507.017 268.147 507.011 265.46C507.003 262.612 499.426 263.465 497.83 263.465Z" fill="#C1DEE2"/>
<path fill-rule="evenodd" clip-rule="evenodd" d="M516.749 290.173C497.158 290.698 477.598 290.882 458.023 291.884C450.702 292.259 443.39 292.538 436.057 292.538C434.645 292.538 431.802 291.991 430.473 292.881C426.866 295.293 430.973 297.363 433.324 297.494C449.404 298.386 465.717 296.165 481.789 295.663C491.197 295.37 500.608 295.283 510.011 294.805C512.576 294.674 515.142 294.523 517.703 294.324C519.176 294.21 523.071 294.523 524.261 293.661C529.458 289.899 518.501 290.126 516.749 290.173Z" fill="#89C5CC"/>
<path fill-rule="evenodd" clip-rule="evenodd" d="M426.865 299.752C426.681 304.831 426.662 309.821 427.327 314.872C427.588 316.86 427.708 319.115 430.038 319.621C432.154 320.079 433.227 318.479 433.665 316.704C434.735 312.371 433.793 306.135 433.781 301.634C433.775 299.409 433.773 296.918 431.023 296.415C428.925 296.03 426.945 297.547 426.865 299.752Z" fill="#89C5CC"/>
<path fill-rule="evenodd" clip-rule="evenodd" d="M537.513 311.996C505.802 313.668 474.132 315.126 442.397 316.468C439.922 316.573 420.696 316.363 427.418 323.068C429.494 325.138 434.843 323.736 437.527 323.605C441.562 323.406 445.599 323.255 449.633 323.049C465.63 322.235 481.668 322.015 497.653 321.102C506.449 320.599 515.226 319.812 523.977 318.787C528.139 318.3 533.306 318.351 537.204 316.72C539.209 315.88 541.373 311.792 537.513 311.996Z" fill="#89C5CC"/>
<path fill-rule="evenodd" clip-rule="evenodd" d="M519.28 286.231C516.868 288.633 518.108 293.372 518.29 296.34C518.54 300.426 518.844 304.513 519.354 308.576C519.685 311.215 519.51 315.323 520.918 317.603C522.566 320.272 526.197 319.977 527.688 317.398C529.006 315.117 528.339 310.317 528.305 307.789C528.258 304.294 528.04 300.793 527.832 297.304C527.659 294.388 528.32 289.716 526.716 287.22C525.086 284.684 521.54 283.984 519.28 286.231Z" fill="#89C5CC"/>
<path fill-rule="evenodd" clip-rule="evenodd" d="M446.796 304.87C446.514 305.088 446.514 305.088 446.796 304.87V304.87ZM452.429 304.165C457.685 305.222 449.186 311.358 446.5 307.146C446.081 306.488 445.863 305.68 446.536 305.108C447.151 304.585 447.537 305.51 448.118 305.262C449.118 304.833 451.362 304.125 452.429 304.165ZM451.704 299.127C448.116 299.411 443.182 299.632 441.406 303.229C439.02 308.061 443.101 312.792 447.821 313.527C452.364 314.235 459.147 311.718 459.51 306.42C459.804 302.148 455.741 298.799 451.704 299.127Z" fill="#89C5CC"/>
<path fill-rule="evenodd" clip-rule="evenodd" d="M481.661 301.682C477.946 301.742 470.645 300.643 467.409 302.454C464.207 304.245 465.635 307.436 468.556 308.199C470.487 308.703 473.642 307.889 475.653 307.807C478.297 307.7 480.944 307.677 483.59 307.64C488.04 307.58 492.489 307.631 496.939 307.631C501.485 307.631 506.108 307.755 510.646 307.421C516.387 306.998 516.233 302.699 510.618 302.162C501.079 301.249 491.23 301.531 481.661 301.682Z" fill="#89C5CC"/>
<path fill-rule="evenodd" clip-rule="evenodd" d="M472.172 349.831C472.172 351.874 473.985 349.831 473.972 349.831C473.985 349.831 472.172 347.788 472.172 349.831Z" fill="#89C5CC"/>
<path fill-rule="evenodd" clip-rule="evenodd" d="M431.177 333.389C431.294 339.326 431.37 345.269 431.624 351.201C431.704 353.077 431.167 356.74 433.441 357.697C435.972 358.761 436.759 356.108 437.05 354.31C437.973 348.614 437.068 342.11 436.98 336.346C436.95 334.41 437.369 331.716 435.17 330.751C433.378 329.964 431.14 331.426 431.177 333.389Z" fill="#89C5CC"/>
<path fill-rule="evenodd" clip-rule="evenodd" d="M528.815 333.482C528.965 333.835 528.965 333.835 528.815 333.482V333.482ZM529.027 333.421C529.148 333.472 529.64 333.678 529.027 333.421V333.421ZM481.063 328.623C471.948 328.765 462.828 328.874 453.719 329.264C449.831 329.431 445.899 329.565 442.025 329.932C439.281 330.191 432.464 330.299 430.684 332.542C427.012 337.17 434.8 335.908 436.477 335.532C439.53 334.848 442.647 334.628 445.765 334.464C452.533 334.107 459.303 333.916 466.079 333.78C484.453 333.41 502.841 333.466 521.219 333.383C522.999 333.375 526.215 332.66 527.858 333.379C529.504 334.101 529.411 335.874 529.582 337.934C529.81 340.674 528.003 345.895 529.38 348.199C531.516 351.774 534.622 348.739 535.097 346.133C535.752 342.531 534.713 338.207 533.695 334.765C532.259 329.908 530.265 329.715 525.567 329.336C520.079 328.892 514.61 328.623 509.104 328.572C499.759 328.487 490.407 328.477 481.063 328.623Z" fill="#89C5CC"/>
<path fill-rule="evenodd" clip-rule="evenodd" d="M517.113 353.166C497.344 355.461 477.012 354.109 457.137 354.19C452.304 354.21 447.466 354.248 442.638 354.483C440.088 354.606 434.042 353.903 432.295 355.87C428.612 360.018 435.247 360.621 437.668 360.449C442.565 360.101 447.474 359.942 452.383 359.904C469.676 359.771 487.066 360.577 504.345 359.724C511.584 359.367 518.661 358.129 525.766 356.745C527.34 356.438 538.115 354.39 531.971 351.935C528.339 350.484 520.928 352.72 517.113 353.166Z" fill="#89C5CC"/>
<path fill-rule="evenodd" clip-rule="evenodd" d="M459.392 345.574C459.254 345.751 459.254 345.751 459.392 345.574V345.574ZM459.259 345.543C459.212 345.67 459.067 345.984 459.259 345.543V345.543ZM458.012 343.934C458.041 343.972 458.159 344.122 458.012 343.934V343.934ZM457.964 343.922C458.44 344.491 458.761 345.125 458.926 345.824C454.83 346.933 453.251 343.62 457.964 343.922ZM457.705 343.767C457.707 343.768 458.283 344.01 457.705 343.767V343.767ZM450.976 338.83C448.325 342.132 446.137 345.979 449.442 349.75C452.397 353.121 458.343 353.556 462.093 351.306C465.957 348.986 465.623 344.104 462.928 340.917C461.193 338.865 459.786 338.922 457.269 338.587C455.554 338.359 452.431 337.026 450.976 338.83Z" fill="#89C5CC"/>
<path fill-rule="evenodd" clip-rule="evenodd" d="M478.38 344.94C478.38 349.336 497.361 347.444 500.738 347.44C503.566 347.435 520.67 348.996 519.443 344.472C518.434 340.755 501.586 342.603 497.999 342.597C494.897 342.593 478.38 340.463 478.38 344.94Z" fill="#89C5CC"/>
</g>
<g opacity="0.5">
<path fill-rule="evenodd" clip-rule="evenodd" d="M280.7 446.376C290.206 447.756 300.094 452.226 300.011 463.291C299.941 472.595 292.138 482.496 282.119 481.94C273.102 481.441 264.612 471.58 263.483 463.13C262.898 458.752 263.993 454.039 266.568 450.437C269.942 445.719 275.296 445.726 280.7 446.376ZM276.209 440.362C269.334 440.399 264.304 442.886 260.049 448.136C258.523 450.018 256.748 452.044 255.586 454.177C254.501 456.169 254.691 461.234 258.415 458.859C257.498 468.665 263.229 478.182 271.467 483.206C280.422 488.669 290.544 487.604 297.997 479.948C304.819 472.94 307.22 461.103 302.229 452.436C297.241 443.774 285.683 440.269 276.209 440.362Z" fill="#89C5CC"/>
<path fill-rule="evenodd" clip-rule="evenodd" d="M296.826 437.733C292.424 440.96 288.405 445.208 285.067 449.517C281.804 453.728 279.647 458.987 275.727 462.66C273.748 460.504 271.429 454.681 267.48 456.991C264.203 458.908 266.313 462.204 267.909 464.369C272.03 469.958 276.606 472.208 281.891 466.685C286.691 461.67 289.417 454.98 293.905 449.676C295.873 447.349 298.915 445.04 300.482 442.47C301.903 440.141 300.146 435.294 296.826 437.733Z" fill="#89C5CC"/>
</g>
<g opacity="0.5">
<path fill-rule="evenodd" clip-rule="evenodd" d="M437.013 84.6147C437.017 84.9561 437.022 85.2772 437.028 85.5724C437.171 92.0177 437.088 98.7936 436.619 105.224C436.457 107.444 435.01 110.258 433.359 107.198C432.633 105.852 432.735 103.088 432.81 101.056C432.83 100.511 432.848 100.018 432.848 99.6195C432.846 97.3513 432.953 95.0599 433.06 92.7623C433.269 88.2706 433.48 83.7552 432.884 79.3437C432.872 79.2544 432.86 79.1685 432.849 79.0859C432.591 77.1459 432.573 77.0119 430.661 77.056C429.865 77.0744 429.068 77.0985 428.271 77.1225C427.487 77.1462 426.704 77.1698 425.92 77.1882C425.142 77.2064 424.363 77.2231 423.585 77.2398C421.144 77.2922 418.703 77.3446 416.263 77.4443C415.856 77.4611 415.096 77.5674 414.138 77.7017C412.221 77.97 409.509 78.3496 407.226 78.3475C407.227 78.3584 407.228 78.3694 407.228 78.3804C407.23 78.4 407.231 78.4198 407.231 78.4398C407.257 79.8461 406.932 81.416 406.606 82.9931C406.333 84.3139 406.059 85.6398 405.989 86.879C405.821 89.8277 405.82 92.8075 405.818 95.7873C405.816 99.4156 405.813 103.044 405.512 106.616C405.498 106.79 405.489 106.975 405.48 107.161C405.479 107.186 405.477 107.21 405.476 107.235C405.579 107.218 405.68 107.205 405.777 107.198C407.422 107.082 409.08 107.072 410.737 107.061C411.65 107.055 412.563 107.05 413.472 107.026C415.105 106.984 416.757 106.986 418.416 106.988C422.079 106.992 425.774 106.997 429.357 106.526C430.416 106.373 430.786 107.888 430.311 108.673C429.886 109.376 428.716 109.49 427.859 109.573C427.641 109.595 427.444 109.614 427.284 109.64C424.973 110.022 422.631 110.155 420.3 110.271C417.851 110.392 415.4 110.482 412.95 110.558C412.367 110.576 411.589 110.664 410.726 110.762C408.447 111.019 405.578 111.342 404.154 110.623C402.624 109.85 402.66 108.993 403.285 108.328C403.011 107.656 402.968 106.673 402.934 105.905C402.921 105.612 402.91 105.35 402.887 105.148C402.547 102.089 402.343 99.0691 402.338 95.9839C402.328 89.9405 402.339 83.6641 403.837 77.8144C403.237 77.5212 402.875 77.089 402.877 76.4661C402.884 73.3277 411.636 73.4874 415.796 73.5633C416.54 73.5768 417.137 73.5877 417.511 73.5766C420.541 73.4882 423.572 73.4767 426.604 73.4951C427.244 73.4989 427.957 73.4521 428.696 73.4036C430.266 73.3006 431.954 73.1899 433.311 73.5418C436.875 74.4654 436.961 80.8015 437.013 84.6147Z" fill="#89C5CC"/>
<path fill-rule="evenodd" clip-rule="evenodd" d="M459.307 74.2296C462.616 74.0342 465.928 73.9893 469.241 73.9757C472.75 73.9559 476.263 74.0263 479.77 74.1467L479.851 74.1494C481.405 74.2015 490.042 74.491 486.074 76.8931C485.842 77.0333 485.582 77.1504 485.298 77.2476C485.466 78.3599 485.486 79.5083 485.459 80.0615C485.357 82.1594 485.289 84.2597 485.221 86.3599L485.221 86.3602L485.221 86.3614C485.176 87.7844 485.13 89.2074 485.073 90.6296C484.917 94.5606 484.768 98.4911 484.647 102.424C484.632 102.907 484.655 103.538 484.681 104.242C484.765 106.568 484.878 109.685 483.746 110.838C482.753 111.85 482.074 111.647 481.616 110.96C478.773 111.881 472.935 111.582 469.999 111.431C469.292 111.395 468.753 111.367 468.465 111.367C467.95 111.367 466.994 111.439 465.786 111.53C460.759 111.906 451.375 112.61 451.356 109.844C451.354 109.578 451.432 109.339 451.578 109.126C451.179 108.672 450.821 108.006 450.591 107.175C449.765 104.192 449.687 100.973 449.625 97.8791C449.539 93.5108 449.538 89.1375 449.537 84.7651C449.537 82.5196 449.536 80.2742 449.524 78.03C448.987 77.2245 449.306 76.3033 449.976 75.6605C451.404 74.293 454.947 74.2765 457.511 74.2645C458.2 74.2613 458.819 74.2584 459.307 74.2296ZM453.922 107.912C457.111 107.152 462.486 107.397 465.366 107.528C466.12 107.562 466.703 107.589 467.031 107.587C469.971 107.575 472.913 107.62 475.852 107.751C476.157 107.765 476.607 107.752 477.139 107.737C478.205 107.707 479.597 107.668 480.778 107.814C480.762 107.635 480.751 107.472 480.745 107.331C480.613 104.411 480.708 101.467 480.803 98.5384V98.5384L480.803 98.5374C480.824 97.9153 480.844 97.2939 480.862 96.6737C480.925 94.4842 481.009 92.2958 481.092 90.1073C481.145 88.7293 481.198 87.3513 481.245 85.973C481.266 85.3683 481.235 84.547 481.2 83.6229V83.6228C481.129 81.7428 481.042 79.4377 481.343 77.6673C480.255 77.6442 479.14 77.5581 478.118 77.4792C477.132 77.4031 476.233 77.3337 475.526 77.3336C474.629 77.3335 473.732 77.3304 472.835 77.3273H472.835C470.35 77.3188 467.866 77.3103 465.381 77.3652L464.673 77.3806C461.252 77.4542 457.802 77.5285 454.409 78.0316C454.21 78.0611 453.971 78.1181 453.706 78.1871C454.078 79.9222 453.896 82.3677 453.736 84.5094L453.736 84.5094C453.659 85.5497 453.587 86.5183 453.586 87.2991C453.581 92.1545 453.696 96.9908 453.811 101.822L453.811 101.822C453.854 103.65 453.898 105.477 453.934 107.304C453.939 107.522 453.934 107.725 453.922 107.912Z" fill="#89C5CC"/>
<path fill-rule="evenodd" clip-rule="evenodd" d="M417.617 110.418C415.442 111.836 416.615 117.508 417.369 119.47C418.607 122.696 421.12 125.22 423.832 126.894C429.314 130.279 437.215 129.38 441.36 135.247C441.403 135.308 442.836 136.891 443.162 134.841C443.43 133.158 440.755 130.588 439.718 129.745C436.771 127.346 432.99 126.573 429.58 125.375C425.944 124.097 421.954 121.741 420.429 117.557C419.89 116.075 420.919 108.255 417.617 110.418Z" fill="#C1DEE2"/>
<path fill-rule="evenodd" clip-rule="evenodd" d="M467.335 113.145C465.342 113.758 466.66 116.819 466.657 118.352C466.653 120.264 466.105 122.265 465.05 123.79C462.372 127.66 457.13 128.24 453.199 129.349C450.345 130.155 443.517 131.884 443.25 136.191C442.952 141.002 448.98 135.148 449.489 134.908C455.124 132.601 462.413 132.156 466.762 127.078C468.557 124.982 469.618 122.185 469.786 119.297C469.882 117.672 469.898 112.364 467.335 113.145Z" fill="#C1DEE2"/>
<path fill-rule="evenodd" clip-rule="evenodd" d="M426.154 155.816C426.108 146.915 433.74 141.531 440.641 139.506C448.937 137.067 456.663 143.554 457.641 152.886C458.673 162.734 452.023 170.662 443.253 171.097C435.538 171.479 426.204 165.314 426.154 155.816ZM444.684 143.785C445.133 144.466 445.538 145.553 444.634 146.144C443.764 146.71 443.33 146.03 442.893 145.346C442.617 144.913 442.339 144.479 441.951 144.357C440.942 144.04 439.322 145.224 438.482 145.914C438.141 146.194 437.656 146.797 437.088 147.502C435.283 149.746 432.647 153.023 431.19 150.203C425.379 161.402 439.866 169.783 448.104 165.545C457.151 160.891 455.39 143.874 444.684 143.785Z" fill="#89C5CC"/>
<path fill-rule="evenodd" clip-rule="evenodd" d="M437.092 152.836C437.092 154.879 439.982 154.879 439.982 152.836C439.982 150.817 437.092 150.73 437.092 152.836Z" fill="#89C5CC"/>
<path fill-rule="evenodd" clip-rule="evenodd" d="M442.178 152.453C442.178 154.956 445.72 154.956 445.72 152.453C445.72 149.979 442.178 149.873 442.178 152.453Z" fill="#89C5CC"/>
<path fill-rule="evenodd" clip-rule="evenodd" d="M438.538 158.285C435.641 160.186 443.926 163.965 444.253 160.104C444.394 158.438 442.948 158.887 441.985 158.765C441.063 158.647 439.413 157.716 438.538 158.285Z" fill="#89C5CC"/>
<path fill-rule="evenodd" clip-rule="evenodd" d="M437.281 171.778C437.407 176.636 437.347 181.491 438.172 186.281C438.329 187.19 438.438 190.491 439.082 191.166C440.667 192.829 440.693 189.642 440.755 188.421C440.975 184.047 440.563 179.537 440.472 175.154C440.453 174.211 440.677 172.257 440.278 171.344C439.645 169.894 437.22 169.464 437.281 171.778Z" fill="#C1DEE2"/>
<path fill-rule="evenodd" clip-rule="evenodd" d="M434.183 167.839C427.832 175.795 419.086 175.209 410.275 175.906C405.62 176.274 400.912 177.03 397.166 180.391C395.424 181.954 393.922 183.912 392.912 186.144C392.471 187.12 390.378 192.749 393.522 191.414C394.636 190.94 395.734 187.217 396.455 186.116C397.828 184.019 399.585 182.287 401.693 181.162C405.759 178.991 410.614 179.028 415.023 178.752C419.632 178.465 424.578 178.196 428.814 175.959C430.807 174.907 432.677 173.594 434.281 171.903C434.854 171.299 436.083 170.272 436.174 169.348C436.279 168.291 435.369 166.357 434.183 167.839Z" fill="#C1DEE2"/>
<path fill-rule="evenodd" clip-rule="evenodd" d="M402.121 192.259C396.155 192.481 390.196 192.751 384.239 193.172C383.018 193.258 378.947 192.983 379.984 195.775C380.815 198.013 385.779 196.532 387.421 196.424C393.629 196.013 399.863 195.87 406.058 195.246C407.45 195.107 413.74 195.162 411.142 192.41C409.907 191.099 403.828 192.194 402.121 192.259Z" fill="#89C5CC"/>
<path fill-rule="evenodd" clip-rule="evenodd" d="M376.196 195.47C374.315 198.227 375.179 204.927 375.321 208.24C375.459 211.452 374.9 217.323 378.656 217.821C377.463 217.647 379.561 217.902 379.903 217.922C380.665 217.968 381.431 217.983 382.195 217.992C383.959 218.014 385.724 217.987 387.487 217.948C391.482 217.859 395.488 217.729 399.478 217.483C401.155 217.379 410.254 217.465 410.614 215.521C411.075 213.036 402.351 214.442 400.789 214.521C396.986 214.716 393.176 214.757 389.37 214.812C387.483 214.84 385.594 214.861 383.708 214.82C382.929 214.803 379.843 215.16 379.37 214.58C378.966 214.086 379.281 209.545 379.273 208.851C379.245 206.587 379.247 204.318 379.319 202.055C379.368 200.531 380.106 197.632 379.505 196.201C378.92 194.81 377.215 194.335 376.196 195.47Z" fill="#89C5CC"/>
<path fill-rule="evenodd" clip-rule="evenodd" d="M406.915 195.599C407.024 200.642 407.058 205.787 408.125 210.718C408.481 212.36 408.978 215.744 410.456 216.594C412.006 217.486 413.345 216.213 413.446 214.498C413.574 212.342 412.54 209.512 412.327 207.3C412.08 204.719 411.936 202.136 411.851 199.542C411.787 197.592 412.318 194.668 410.652 193.41C409.155 192.28 406.867 193.418 406.915 195.599Z" fill="#89C5CC"/>
<path fill-rule="evenodd" clip-rule="evenodd" d="M418.788 194.368C416.933 196.431 417.762 202.962 417.994 205.612C418.164 207.554 420.068 217.104 422.92 212.124C424.182 209.921 422.579 204.096 422.59 201.527C422.598 199.891 423.117 197.823 422.866 196.251C422.535 194.174 420.471 192.492 418.788 194.368Z" fill="#89C5CC"/>
<path fill-rule="evenodd" clip-rule="evenodd" d="M431.635 192.665C437.209 192.023 442.788 191.542 448.392 191.482C448.661 191.48 448.944 191.476 449.238 191.472C453.079 191.417 458.851 191.336 461.435 194.555C462.844 196.308 463.482 199.019 464.038 201.382C464.141 201.823 464.242 202.252 464.345 202.66C464.432 203.009 464.546 203.406 464.669 203.836C465.25 205.865 466.035 208.61 465.239 210.309C464.802 211.241 464.099 212.036 463.032 211.706C462.782 211.629 462.587 211.53 462.434 211.414C462.843 211.907 463.024 212.611 462.758 213.299C462.245 214.629 460.624 214.658 459.346 214.68C459.036 214.685 458.747 214.69 458.498 214.713C454.243 215.109 449.968 215.373 445.698 215.415C443.665 215.435 441.632 215.416 439.599 215.398C437.506 215.379 435.413 215.36 433.32 215.383C431.801 215.399 430.254 215.56 428.707 215.722C426.753 215.925 424.798 216.129 422.898 216.042C421.476 215.976 419.958 215.457 420.319 213.406C420.613 211.733 422.024 211.587 423.289 211.456C423.399 211.444 423.508 211.433 423.615 211.421C427.644 210.963 431.674 210.801 435.723 210.817C444.228 210.85 452.727 210.801 461.232 210.752C461.581 210.784 461.911 210.933 462.182 211.16C461.876 210.745 461.882 210.193 461.888 209.605C461.891 209.339 461.894 209.065 461.868 208.794C461.816 208.248 461.768 207.705 461.721 207.163C461.563 205.371 461.407 203.592 461.101 201.789C461.055 201.517 461.01 201.218 460.963 200.901C460.685 199.029 460.316 196.55 458.983 195.539C457.642 194.523 455.013 194.572 452.965 194.61C452.412 194.62 451.901 194.63 451.469 194.617C446.002 194.46 440.504 194.893 435.062 195.445C434.645 195.488 434.226 195.528 433.807 195.569C431.736 195.77 429.655 195.973 427.615 196.386C427.241 196.462 426.671 196.684 426.017 196.939C424.276 197.617 421.942 198.526 421.148 197.525C418.521 194.208 430.068 192.846 431.635 192.665Z" fill="#89C5CC"/>
<path fill-rule="evenodd" clip-rule="evenodd" d="M490.928 185.113C491.171 185.461 491.171 185.461 490.928 185.113V185.113ZM453.214 164.564C449.829 166.785 456.094 173.3 457.689 174.308C461.281 176.576 466.215 176.918 470.225 177.555C475.3 178.363 480.824 178.66 485.701 180.516C487.779 181.307 489.099 182.541 490.46 184.438C491.15 185.399 492.81 189.542 494.322 188.561C497.366 186.586 489.163 178.299 487.356 177.408C483.247 175.382 478.391 174.815 473.998 174.028C469.913 173.296 465.74 172.753 461.756 171.463C459.565 170.754 458.008 169.61 456.746 167.421C455.959 166.056 455.313 163.193 453.214 164.564Z" fill="#C1DEE2"/>
<path fill-rule="evenodd" clip-rule="evenodd" d="M505.103 190.017C501.201 190.114 497.306 190.449 493.411 190.784C491.227 190.972 489.042 191.16 486.857 191.305C486.174 191.351 485.489 191.392 484.805 191.433L484.805 191.433C482.88 191.549 480.952 191.665 479.036 191.881C478.745 191.914 478.408 191.945 478.041 191.978L478.041 191.978C476.413 192.127 474.195 192.331 472.777 192.993C471.477 191.896 469.471 192.829 469.44 194.785C469.386 198.347 469.416 201.847 469.805 205.387C469.895 206.209 470.361 210.371 471.373 212.537C471.013 214.582 472.575 215.156 474.029 215.312C479.662 215.919 485.568 215.448 491.394 214.983C494.358 214.747 497.301 214.512 500.176 214.422C501.133 214.392 502.101 214.38 503.075 214.368C506.255 214.328 509.495 214.287 512.573 213.616C512.697 213.589 512.83 213.563 512.969 213.535C514.186 213.291 515.864 212.955 515.992 211.461C516.068 210.564 515.615 209.742 514.856 209.627C514.908 208.879 514.824 208.064 514.762 207.464C514.748 207.325 514.734 207.197 514.724 207.085C514.54 205.005 514.076 202.94 513.618 200.901C513.515 200.443 513.412 199.986 513.313 199.531C513.203 199.026 513.102 198.426 512.992 197.779L512.992 197.779L512.992 197.779C512.605 195.495 512.119 192.625 510.825 191.293C509.469 189.896 507.261 189.957 505.492 190.007L505.492 190.007C505.36 190.011 505.23 190.014 505.103 190.017ZM511.97 209.85C511.508 208.498 511.372 206.67 511.244 204.933C511.163 203.842 511.085 202.787 510.93 201.908C510.813 201.248 510.718 200.552 510.621 199.845L510.621 199.845C510.386 198.128 510.142 196.343 509.564 194.838C508.791 192.823 508.103 192.9 506.474 193.082C506.171 193.116 505.836 193.153 505.461 193.182C503.801 193.308 502.143 193.468 500.485 193.628C499.689 193.705 498.894 193.782 498.098 193.855C494.693 194.167 491.287 194.407 487.88 194.647C485.89 194.788 483.899 194.928 481.909 195.083C480.347 195.204 478.822 195.535 477.304 195.865C476.101 196.127 474.903 196.387 473.693 196.542C473.675 197.004 473.64 197.467 473.607 197.909C473.562 198.51 473.52 199.07 473.529 199.529C473.569 201.564 473.73 203.586 473.891 205.612L473.891 205.612C473.916 205.923 473.94 206.235 473.965 206.546C473.994 206.92 474.066 207.4 474.146 207.932C474.269 208.755 474.411 209.703 474.443 210.577C474.591 210.576 474.737 210.576 474.881 210.577C475.068 210.578 475.25 210.579 475.426 210.575C479.716 210.491 484.002 210.346 488.289 210.162C488.836 210.139 489.384 210.115 489.931 210.091C493.756 209.925 497.581 209.759 501.408 209.71C502.929 209.691 504.47 209.744 506.015 209.797C508.004 209.866 509.999 209.935 511.97 209.85Z" fill="#89C5CC"/>
</g>
</svg>
