<svg width="115" height="173" viewBox="0 0 115 173" fill="none" xmlns="http://www.w3.org/2000/svg">
<path fill-rule="evenodd" clip-rule="evenodd" d="M85.176 172.61C82.9483 173.05 80.4886 173.017 78.2195 172.98C66.0501 172.831 54.0999 167.619 46.3225 159.293C39.7015 152.204 37.8809 143.39 36.5729 134.481C36.4432 133.597 36.3876 132.718 36.3144 131.831C36.2987 131.641 36.2752 131.471 36.2502 131.312C35.7358 130.896 35.4659 130.411 35.7704 129.878C34.6372 127.635 33.6786 125.335 32.856 122.963C30.4351 115.981 27.9725 108.866 29.4895 101.523C29.8439 105.564 30.5894 109.695 31.481 113.67C31.5323 113.898 31.5877 114.124 31.6453 114.35C31.6513 114.373 31.6567 114.397 31.6627 114.421C31.9783 115.638 32.3886 116.818 32.8875 117.98C32.8927 117.993 32.8977 118.005 32.9032 118.018C32.9691 118.171 33.039 118.323 33.1081 118.475C33.251 118.79 33.3978 119.104 33.5535 119.417C33.6061 119.524 33.6567 119.631 33.7052 119.739C34.4316 121.35 34.7384 123.164 35.3891 124.83C35.5448 125.209 35.7075 125.586 35.878 125.962C35.888 125.984 35.8983 126.006 35.9085 126.028C36.3694 127.038 36.8785 128.036 37.4169 129.023C37.7095 129.222 37.8659 129.716 38.1182 130.164C38.1704 130.253 38.5783 130.842 38.6998 131.181C39.0169 131.736 39.3327 132.291 39.6521 132.845C39.6425 132.842 39.6329 132.838 39.6233 132.835C39.9429 133.367 40.2633 133.896 40.5813 134.424C40.6512 134.54 40.7219 134.656 40.7923 134.772C40.9065 134.957 41.0207 135.141 41.1347 135.326C42.2006 137.051 43.3309 138.742 44.5046 140.412C44.9235 141.008 45.9243 141.863 46.1162 142.532C46.1233 142.557 46.1249 142.58 46.1292 142.604C48.6762 145.839 51.6084 148.824 55.1247 151.188C54.6996 150.773 53.7961 149.362 53.5573 149.083C52.8263 148.228 52.0327 147.433 51.2362 146.627C49.8096 145.184 48.4168 143.695 47.1792 142.121C44.916 139.242 42.9635 136.212 41.1178 133.121C41.1002 133.103 41.0811 133.086 41.0645 133.067C40.1368 132.033 39.5529 130.47 38.8851 129.286C41.5278 130.394 44.4499 131.115 47.1621 132.098C49.8668 133.078 52.4979 134.169 55.038 135.451C58.4142 137.154 61.9164 139.077 65.1063 141.253C68.7618 143.304 71.8337 146.127 74.5452 149.09C77.7534 152.595 80.6935 156.131 82.5118 160.386C83.4051 162.478 84.1077 164.658 84.5243 166.865C84.5426 166.961 84.5658 167.065 84.5911 167.173C85.0173 167.935 85.3984 168.714 85.7182 169.511C86.226 170.776 87.4253 172.166 85.176 172.61Z" fill="#69A1AC"/>
<path fill-rule="evenodd" clip-rule="evenodd" d="M113.223 125.24C111.105 127.309 107.869 128.414 104.865 129.043C93.1319 131.504 81.1 129.87 70.0779 125.988C64.0383 123.861 58.3251 120.738 53.1161 117.33C50.1094 115.364 47.3092 113.141 45.0527 110.489C43.5298 108.7 42.3036 106.759 41.2849 104.706C40.0434 102.204 38.9066 99.6237 38.0223 97.0008C37.6741 95.9679 35.5848 90.5377 37.4867 90.0395C37.4407 89.9045 37.4048 89.7741 37.3867 89.6543C31.6985 84.6042 27.3491 78.1999 23.2792 72.1168C19.738 66.8232 16.4114 61.4335 13.6986 55.7578C10.127 48.2855 7.07039 40.5815 4.56192 32.768C4.02293 31.0888 3.5171 29.4018 3.021 27.7111C2.59824 26.2691 2.17477 24.8272 1.75271 23.385C1.27997 21.7687 0.48701 19.9599 0.361211 18.281C0.251418 16.8188 1.65201 16.7499 2.06815 18.1406C2.5708 19.82 2.99064 21.5203 3.50347 23.1989C4.18436 25.4266 4.86854 27.6536 5.56196 29.878C10.3807 45.33 17.4683 60.0642 27.0771 73.5999C30.9656 79.0774 35.1187 84.1637 40.0137 88.9586C44.3174 93.1745 49.2042 97.1048 54.0907 100.695C58.84 104.184 63.7098 107.544 69.1198 110.209C73.51 112.372 78.1689 114.081 82.8948 115.589C88.8972 117.505 94.871 119.35 101.131 120.474C104.385 121.058 107.663 121.505 110.928 122.036C111.515 122.131 112.139 122.212 112.715 122.345C114.634 122.787 114.376 124.113 113.223 125.24Z" fill="#C1DEE2"/>
<path fill-rule="evenodd" clip-rule="evenodd" d="M55.1269 86.4756C60.0232 86.4756 64.3801 85.8969 68.8915 84.1269C72.7858 82.5993 76.3347 80.5771 79.7803 78.3754C84.627 75.2789 88.4446 71.675 91.1168 66.8999C92.7133 64.0473 93.8844 60.0106 92.8122 56.8992C91.5493 53.2345 88.0816 50.1782 83.5144 50.8239C80.6903 51.2228 78.1013 52.9233 75.9548 54.5238C73.387 56.4385 71.3315 58.7408 69.6343 61.2979C66.8656 65.4689 65.2386 70.1843 62.8867 74.5429C61.7707 76.6115 60.6922 78.6949 59.3555 80.6609C58.6938 81.6345 57.9893 82.5987 56.9854 83.3222C56.4483 83.7092 54.1838 84.379 55.0498 85.2481C42.3525 85.0964 31.1041 76.2262 28.6666 65.2466C28.4396 64.2232 28.2622 63.1915 28.0747 62.1619C27.9564 61.5117 28.0042 59.114 27.3652 58.6987C25.956 57.7824 26.5483 60.5659 26.6088 60.9666C26.7651 62.0023 26.9318 63.0372 27.1068 64.0703C28.0586 69.6896 30.8088 74.9134 35.3953 78.9209C40.64 83.5034 47.7165 86.4756 55.1269 86.4756Z" fill="#89C5CC"/>
</svg>
