<svg width="126" height="187" viewBox="0 0 126 187" fill="none" xmlns="http://www.w3.org/2000/svg">
<path fill-rule="evenodd" clip-rule="evenodd" d="M9.06923 33.3579C11.3955 31.517 14.9978 32.6811 17.3347 33.761C18.2351 34.1775 20.5357 35.5105 22.2411 37.0123C22.0172 35.9696 21.8177 34.9178 21.6438 33.8572C20.9287 29.4967 20.4388 25.053 20.2071 20.6347C20.1263 19.0919 20.3032 17.3063 20.3955 15.5624C20.3021 15.4583 20.2393 15.3145 20.213 15.1196C20.1643 15.5142 20.2172 15.5278 20.0322 15.2449C18.3085 12.5737 16.8623 9.56292 16.6686 6.25063C16.5046 3.44146 18.7451 -1.87828 21.9014 1.7959C23.3134 3.4368 22.9259 14.9794 20.7996 15.6906C21.3606 19.5141 22.0677 23.331 22.9554 27.099C23.0894 27.0742 23.2261 27.0718 23.3612 27.0907C23.35 26.1535 23.3504 25.1308 23.3881 24.7791C23.7119 21.7493 26.1683 15.5948 30.0597 16.7819C33.0499 17.6942 31.2096 21.4749 30.1885 23.1301C28.5449 25.795 26.6889 26.951 24.3386 28.3395C24.2906 28.9116 23.9335 29.2448 23.5123 29.3537C25.0739 35.4386 27.1292 41.3724 29.8225 46.9759C30.1833 45.2052 30.6268 42.9603 30.899 42.5135C32.2276 40.3293 35.1652 37.6592 37.8674 38.9453C43.5429 41.6501 37.3638 49.4644 32.5264 50.3219C32.325 50.6097 32.1118 50.8413 31.8854 50.9743C32.822 52.6655 33.8233 54.3214 34.8951 55.9345C36.5022 58.3608 38.23 60.7791 40.0414 63.183C40.1007 61.2999 40.8267 57.1019 41.0312 56.6506C42.2759 53.9101 45.8548 51.0861 48.751 53.0262C52.0082 55.2136 49.0441 59.3635 47.1808 61.2425C46.4171 62.0129 42.6413 64.8379 41.3113 64.853C45.6881 70.5217 50.5203 76.0925 55.4338 81.4613C55.0301 79.0546 54.5089 72.4256 54.5697 71.6897C54.8819 67.8911 57.3046 61.8118 62.0542 63.2835C66.6622 64.7091 64.6117 71.0237 63.0282 74.0349C62.0691 75.8573 60.7441 77.7097 59.1479 78.9824C58.5133 79.4882 57.4512 79.7905 56.9114 80.3347C56.3706 80.8801 56.5989 81.5898 56.0208 82.1037C58.6763 84.9926 61.3504 87.8211 63.9863 90.571C65.23 91.869 66.4964 93.1416 67.7753 94.3984C68.4768 94.0963 69.4755 94.4901 69.4217 95.5174C69.4138 95.6666 69.3803 95.7954 69.3352 95.9135C70.3044 96.8465 71.2798 97.7728 72.2629 98.6892C72.2409 98.4218 72.2481 98.0446 72.2943 97.5237C71.3323 98.9379 71.7314 95.6537 71.6305 94.9254C71.3077 92.5903 70.6841 90.3278 70.7093 87.9448C70.7463 84.4993 72.8647 78.7199 77.2979 80.7636C81.3743 82.6394 79.8811 87.7486 78.3365 90.9529C77.3587 92.9805 76.0224 94.7919 74.6261 96.5262C74.0074 97.2955 73.2193 98.7402 72.7245 99.1188C78.2003 104.197 83.8633 109.059 89.4432 114.019C89.5191 113.681 89.5819 113.347 89.636 113.034C89.5276 113.16 89.3804 113.219 89.1917 113.208C88.5331 109.793 83.9777 91.5717 93.4987 94.773C99.9462 96.947 95.3693 110.319 90.5496 115.003C93.465 117.608 96.3526 120.246 99.1725 122.963C101.213 124.93 103.193 126.963 105.097 129.065C104.115 126.341 103.19 122.814 103.806 120.004C104.702 115.916 108.874 112.049 112.937 114.367C120.588 118.752 107.765 125.604 106.235 130.341C112.288 137.236 117.453 144.898 120.898 153.632C124.644 163.129 128.115 175.893 126.165 186.529C126.579 181.216 124.566 174.365 123.546 170.286C121.947 163.894 119.671 157.677 116.667 151.86C111.856 142.542 105.493 134.636 98.1439 127.461C95.4377 128.442 92.3534 130.764 90.8158 131.453C87.9968 132.716 82.5854 134.529 80.7977 130.569C79.0401 126.675 83.5476 124.488 86.3402 123.609C89.0391 122.761 91.4706 122.859 93.9856 123.545C89.3795 119.318 84.6398 115.25 79.9259 111.154C75.6856 114.757 69.5866 125.047 64.3419 119.716C58.3234 113.598 69.8654 107.348 74.7773 107.826C75.3803 107.884 75.9635 108.015 76.5322 108.193C71.5299 103.798 66.6052 99.3127 61.9488 94.5107C59.2287 95.0289 51.2648 107.341 45.8834 101.957C43.1949 99.2673 44.1244 95.069 46.7318 92.6648C49.3494 90.2502 53.1385 90.2474 56.3576 91.0534C57.7491 91.3999 59.0323 92.064 60.2283 92.874C60.2792 92.8767 60.3281 92.8797 60.3769 92.8823C55.795 88.1067 51.1852 83.2241 46.7457 78.1741C46.6682 78.2001 46.5884 78.2268 46.5087 78.2539C46.2391 78.5956 45.7886 78.7212 45.3762 78.6465C41.7678 79.9326 36.8584 81.8351 33.1119 81.0967C30.5282 80.5876 28.1869 78.416 30.3793 75.7334C32.1617 73.5517 36.9868 73.8559 39.3392 74.3677C40.9695 74.7228 42.8034 76.0422 44.5639 76.9636C44.6998 76.6805 44.9363 76.4985 45.2056 76.4108C40.822 71.336 36.6398 66.085 32.8478 60.6049C28.9275 61.2407 23.5433 65.8102 20.0974 61.5662C16.5036 57.1392 23.2813 54.5394 26.5003 54.9547C27.5873 55.0948 28.6588 55.4119 29.693 55.8315C26.9346 51.319 24.8304 46.4942 23.355 41.4256C23.318 41.4449 23.2884 41.4656 23.2464 41.4847C23.2852 41.4628 23.3162 41.4392 23.3525 41.4172C23.2053 40.9101 23.0641 40.4007 22.9296 39.8894C22.6784 39.7449 22.4435 39.6386 22.3311 39.5949C23.7921 40.6368 17.6196 41.1589 16.4636 41.2567C13.908 41.4725 10.4848 41.5576 8.6139 39.3932C7.04274 37.5752 7.13932 34.885 9.06923 33.3579Z" fill="#89C5CC" fill-opacity="0.7"/>
</svg>
