<svg width="66" height="135" viewBox="0 0 66 135" fill="none" xmlns="http://www.w3.org/2000/svg">
<path fill-rule="evenodd" clip-rule="evenodd" d="M9.74005 0.099664C14.9921 10.1476 23.9201 17.129 28.6487 27.5768C31.4528 33.7727 32.6216 40.5093 32.6925 47.4089C32.731 51.1565 32.65 54.9065 32.6282 58.6541C32.607 62.3087 32.4837 65.94 32.0983 69.5712C31.7112 73.2217 31.2777 76.8288 31.0865 80.5018C30.9376 83.3637 30.8696 86.6925 29.6647 89.303C28.7066 91.379 26.2713 91.6832 25.6251 89.1653C25.266 87.7656 25.3113 86.2029 25.3509 84.7644C25.4017 82.9188 25.535 81.0759 25.603 79.2306C25.8763 71.8258 25.522 64.4197 25.7072 57.0119C25.8881 49.7744 27.0436 42.5447 25.7651 35.3554C24.7093 29.4185 22.0271 24.3203 18.9447 19.4329C15.9791 14.7307 12.7514 10.1428 10.7473 4.79412C10.1719 3.258 9.727 1.6662 9.51355 0.0144289C9.60685 -0.0204556 9.68235 0.00789881 9.74005 0.099664Z" fill="#C1DEE2"/>
<path fill-rule="evenodd" clip-rule="evenodd" d="M8.30863 19.923C9.34862 20.5277 9.92974 21.4122 10.6327 22.2849C11.5068 23.3698 12.5345 24.3494 13.4085 25.4351C15.2307 27.6988 16.8317 30.1015 18.4929 32.4568C21.6466 36.9275 24.041 41.6924 25.227 46.8646C26.4563 52.2247 26.7877 57.7572 27.3034 63.1973C27.8503 68.9631 28.401 74.771 28.4735 80.559C28.5059 83.1521 28.68 85.9049 28.2933 88.4798C28.0526 90.0829 27.1541 91.4491 25.1284 91.4361C20.8256 91.4086 18.8055 87.5716 17.9616 84.4247C16.7193 79.7909 16.4714 74.8689 16.6681 70.1302C16.9057 64.4162 18.1375 58.788 18.6705 53.096C19.2351 47.0704 18.9162 41.1512 16.3431 35.4777C15.0432 32.6106 13.5345 29.8122 12.1798 26.9641C11.6029 25.7515 11.1304 24.5059 10.3513 23.3767C9.48451 22.1207 8.40854 20.9805 7.72974 19.6277C7.92263 19.7263 8.11574 19.8247 8.30863 19.923Z" fill="#89C5CC"/>
<path fill-rule="evenodd" clip-rule="evenodd" d="M57.8744 7.90737C58.0063 7.82482 58.1384 7.74229 58.2703 7.65955C57.8903 8.94858 57.204 9.99567 56.6793 11.174C56.2077 12.2333 55.9686 13.4321 55.6509 14.59C54.905 17.3095 54.043 19.9678 53.3385 22.7105C51.9438 28.1378 52.2076 33.9846 53.1223 40.006C53.9861 45.6939 55.3523 51.3731 56.0033 57.0598C56.543 61.7759 56.7749 66.6391 56.2602 71.1387C55.9104 74.1946 54.7637 77.8433 51.6395 77.5349C50.1687 77.3897 49.4014 75.9643 49.0923 74.3554C48.5957 71.771 48.4918 69.0538 48.2983 66.484C47.8663 60.748 47.7803 55.0297 47.695 49.3528C47.6143 43.9966 47.3919 38.5343 47.8365 33.313C48.2652 28.2748 49.6062 23.735 51.5235 19.5461C52.5334 17.3392 53.4956 15.0807 54.6302 12.9774C55.1743 11.9685 55.8391 11.077 56.3834 10.0689C56.8211 9.25808 57.1693 8.42603 57.8744 7.90737Z" fill="#C1DEE2"/>
<path fill-rule="evenodd" clip-rule="evenodd" d="M9.63771 36.5274C10.2067 35.7584 11.4591 38.2947 11.6497 38.6137C11.5691 38.455 11.4882 38.2965 11.4065 38.1382C12.5359 39.6502 13.5691 41.2241 14.2114 42.9578C14.8471 44.674 15.3931 46.4249 15.9895 48.1533C17.1087 51.3962 18.5524 54.547 19.5663 57.8191C20.5543 61.0076 20.8034 64.1421 20.5643 67.4402C20.3157 70.868 20.1636 74.3484 20.4536 77.7744C20.5921 79.4106 21.2525 80.9347 21.7051 82.51C22.1582 84.0868 22.5151 85.6847 23.0509 87.2419C23.1738 87.0391 23.1895 87.7173 23.1892 87.7687C23.1859 88.1578 23.1184 88.484 22.9629 88.8529C22.5634 89.8015 21.8161 90.6075 20.6788 90.8691C18.6236 91.3419 16.7154 89.8367 16.0527 88.2474C15.1019 85.9668 14.578 83.4467 14.1249 81.0498C13.7095 78.8518 13.6112 76.6407 13.7346 74.4125C13.9777 70.0184 14.9654 65.6817 15.2325 61.2889C15.5233 56.5064 14.3464 52.0129 13.3611 47.3576C12.8864 45.1145 12.4329 42.8925 11.5092 40.7554C11.1352 39.8901 10.6477 39.1264 10.1364 38.3272C9.84556 37.8726 9.25731 37.0616 9.63771 36.5274Z" fill="#C1DEE2"/>
<path fill-rule="evenodd" clip-rule="evenodd" d="M26.312 29.0572C26.0763 34.536 25.6698 39.9734 24.7626 45.3945C23.8366 50.9268 22.7731 56.4401 21.8822 61.9773C21.015 67.3672 20.1059 72.8466 20.2271 78.3118C20.3164 82.3374 19.4873 89.1473 25.0404 91.1341C30.6645 93.1462 31.8708 84.5538 32.2401 81.7177C32.9478 76.2764 32.7187 70.7778 32.3753 65.3068C32.0227 59.6918 31.4341 54.1053 30.7046 48.5108C29.8943 42.2966 29.2585 36.0544 28.7483 29.8225C28.4959 26.7401 28.4337 23.6627 28.5033 20.5795C28.5692 17.6701 28.4319 14.7305 27.1471 11.9681C27.0798 12.0074 27.0129 12.0467 26.9456 12.0859" fill="#69A1AC"/>
<path fill-rule="evenodd" clip-rule="evenodd" d="M55.3464 46.4147C54.335 47.6011 53.3154 48.7758 52.3603 50.0324C50.6512 52.2807 49.1057 54.7811 48.6407 57.9958C47.6678 64.7236 48.4484 71.9899 48.6368 78.9236C48.6753 80.3405 48.4527 81.7147 49.1464 83.0631C49.7753 84.2859 50.9511 85.2177 52.0719 85.2128C54.4712 85.2017 54.1052 80.4712 54.1091 78.389C54.1163 74.7395 53.6081 71.0531 53.6518 67.4071C53.6955 63.7949 53.9683 60.1727 54.6188 56.7421C55.2774 53.2697 56.2418 49.9354 57.5146 46.8237C57.6912 46.3919 58.9587 43.0552 57.7612 43.6303" fill="#89C5CC"/>
<path fill-rule="evenodd" clip-rule="evenodd" d="M44.7505 10.5319C43.173 10.5319 43.1827 16.8635 43.1352 17.6767C42.9638 20.6116 43.0041 23.5472 42.8957 26.4826C42.6584 32.8886 42.3669 39.3508 41.1718 45.6828C40.5283 49.0915 39.7823 52.4851 38.9799 55.8679C38.1752 59.2605 37.0949 62.649 36.5655 66.0846C36.0572 69.3873 36.3444 72.755 36.4141 76.074C36.4839 79.4131 36.6091 82.7588 37.1525 86.0685C37.2866 86.8855 37.4438 87.6996 37.612 88.5117C37.7521 89.1883 37.6705 90.0275 37.9075 90.6705C38.2876 91.7005 39.9168 92.0376 41.0139 91.8766C43.9824 91.4402 45.8786 88.4392 46.8927 86.2466C48.1877 83.4468 48.8748 80.4099 49.5529 77.4593C50.3212 74.1165 50.7714 70.7227 50.9826 67.3195C51.412 60.403 50.8609 53.4789 50.2456 46.5846C49.9033 42.7503 49.5079 38.9329 48.9029 35.1223C48.3004 31.3281 47.5274 27.5507 47.0241 23.7453C46.6584 20.9798 46.2981 18.2106 46.0612 15.4346C46.0046 14.7727 45.9569 10.5319 44.7505 10.5319Z" fill="#69A1AC"/>
<path fill-rule="evenodd" clip-rule="evenodd" d="M42.7756 56.5558C42.5184 49.9082 39.1995 20.7091 38.4444 12.6704C38.2556 10.6584 36.4376 2.28094 36.2018 0C35.5624 0.644717 35.617 10.6801 35.6241 12.9859C35.6315 15.2669 35.2802 17.51 35.0994 19.7787C34.9152 22.0936 30.6646 51.9898 30.113 54.2141C29.0155 58.6392 28.2811 63.1802 27.7147 67.7047C27.1628 72.1146 26.3049 76.7671 27.0433 81.2002C27.2131 82.2207 27.4816 83.2249 27.919 84.1624C28.3914 85.1754 28.7152 86.1121 29.0945 87.1721C29.7048 88.8795 30.8088 90.3779 32.5052 91.0828C35.9832 92.528 37.8508 89.2564 38.7976 86.408C40.3096 81.8592 41.28 77.2362 41.735 72.459C42.2384 67.1737 42.9815 61.8775 42.7756 56.5558Z" fill="#89C5CC"/>
<rect x="5.94592" y="76.1171" width="54.1081" height="43.5638" rx="2" fill="white"/>
<rect y="80.9043" width="5.94595" height="54.0957" rx="2" fill="#C5CFD6"/>
<rect x="29.7297" y="80.9043" width="5.94595" height="54.0957" rx="2" fill="#C5CFD6"/>
<rect x="60.0541" y="80.9043" width="5.94595" height="54.0957" rx="2" fill="#C5CFD6"/>
</svg>
