<svg width="484" height="441" viewBox="0 0 484 441" fill="none" xmlns="http://www.w3.org/2000/svg">
<path d="M242 297L267.296 297.394L292.315 298.573L316.782 300.524L340.43 303.225L363 306.646L384.244 310.751L403.93 315.494L421.841 320.823L437.782 326.679L451.578 333L463.078 339.715L472.156 346.751L478.712 354.03L482.674 361.474L484 369L482.674 376.526L478.712 383.97L472.156 391.249L463.078 398.285L451.578 405L437.782 411.321L421.841 417.177L403.93 422.506L384.244 427.249L363 431.354L340.43 434.775L316.782 437.476L292.315 439.427L267.296 440.606L242 441L216.704 440.606L191.685 439.427L167.218 437.476L143.57 434.775L121 431.354L99.756 427.249L80.0704 422.506L62.159 417.177L46.2179 411.321L32.4219 405L20.922 398.285L11.8443 391.249L5.28828 383.97L1.3257 376.526L0 369L1.3257 361.474L5.28828 354.03L11.8443 346.751L20.922 339.715L32.4219 333L46.2179 326.679L62.159 320.823L80.0704 315.494L99.756 310.751L121 306.646L143.57 303.225L167.218 300.524L191.685 298.573L216.704 297.394L242 297Z" fill="#CFCFCF" fill-opacity="0.35"/>
<g clip-path="url(#clip0)">
<path fill-rule="evenodd" clip-rule="evenodd" d="M229.083 168.938C229.083 164.847 235.946 161.539 244.407 161.539C252.867 161.539 259.73 164.847 259.73 168.938C259.73 173.028 252.867 176.331 244.407 176.331C235.946 176.331 229.083 173.034 229.083 168.938Z" fill="#8DC5E0"/>
<path fill-rule="evenodd" clip-rule="evenodd" d="M205.14 340.86L209.79 354.9L229.083 350.768L227.191 332.914L205.14 340.86Z" fill="#FF3274"/>
<path fill-rule="evenodd" clip-rule="evenodd" d="M153.93 170.592H447.361C448.113 170.592 448.834 170.872 449.365 171.371C449.897 171.869 450.196 172.546 450.196 173.251V178.063C450.196 178.768 449.897 179.444 449.365 179.943C448.834 180.442 448.113 180.722 447.361 180.722H153.93C153.178 180.722 152.457 180.442 151.925 179.943C151.393 179.444 151.095 178.768 151.095 178.063V173.251C151.095 172.546 151.393 171.869 151.925 171.371C152.457 170.872 153.178 170.592 153.93 170.592Z" fill="#AADAF1"/>
<path d="M193.876 180.962L134.514 351.688" stroke="#AADAF1" stroke-width="2" stroke-linecap="round" stroke-linejoin="round"/>
<path d="M242.053 180.962L182.716 351.688" stroke="#AADAF1" stroke-width="2" stroke-linecap="round" stroke-linejoin="round"/>
<path d="M242.053 180.962L301.383 351.688" stroke="#AADAF1" stroke-width="2" stroke-linecap="round" stroke-linejoin="round"/>
<path d="M193.876 180.962L253.207 351.688" stroke="#AADAF1" stroke-width="2" stroke-linecap="round" stroke-linejoin="round"/>
<path fill-rule="evenodd" clip-rule="evenodd" d="M140.787 323.741L134.54 336.975L151.832 343.922L159.529 330.544L140.787 323.741Z" fill="#FF3274"/>
<path fill-rule="evenodd" clip-rule="evenodd" d="M134.142 335.754L152.422 343.176C152.422 343.176 175.205 363.195 185.718 368.074C185.686 372.519 185.076 374.582 181.433 375.851C179.804 376.417 150.357 365.361 150.357 365.361L145.418 360.392L126.368 352.175L134.142 335.754Z" fill="#6A3416"/>
<path d="M145.181 332.265C145.181 331.833 145.317 331.411 145.573 331.052C145.829 330.692 146.193 330.413 146.618 330.247C147.044 330.082 147.512 330.039 147.963 330.123C148.415 330.207 148.83 330.415 149.155 330.721C149.481 331.026 149.703 331.415 149.793 331.839C149.883 332.262 149.836 332.701 149.66 333.1C149.484 333.499 149.186 333.84 148.803 334.08C148.42 334.32 147.97 334.448 147.509 334.448C147.203 334.449 146.9 334.393 146.617 334.284C146.334 334.174 146.077 334.013 145.861 333.81C145.645 333.607 145.473 333.366 145.356 333.101C145.24 332.836 145.18 332.552 145.181 332.265V332.265Z" stroke="white" stroke-width="2" stroke-linecap="round" stroke-linejoin="round"/>
<path d="M136.374 335.11C136.374 334.677 136.511 334.253 136.768 333.893C137.025 333.533 137.39 333.252 137.817 333.086C138.244 332.921 138.714 332.878 139.167 332.963C139.62 333.048 140.036 333.257 140.362 333.564C140.688 333.871 140.91 334.261 141 334.686C141.089 335.112 141.042 335.552 140.864 335.952C140.687 336.352 140.386 336.694 140.001 336.933C139.617 337.173 139.165 337.301 138.703 337.299C138.085 337.298 137.492 337.066 137.056 336.656C136.619 336.246 136.374 335.69 136.374 335.11V335.11Z" stroke="white" stroke-width="2" stroke-linecap="round" stroke-linejoin="round"/>
<path d="M148.446 338.954C148.446 338.522 148.582 338.1 148.838 337.741C149.094 337.381 149.457 337.102 149.883 336.936C150.308 336.771 150.776 336.728 151.228 336.812C151.68 336.896 152.095 337.104 152.42 337.41C152.746 337.715 152.968 338.104 153.057 338.528C153.147 338.951 153.101 339.39 152.925 339.789C152.749 340.188 152.45 340.529 152.067 340.769C151.685 341.009 151.234 341.137 150.774 341.137C150.156 341.137 149.564 340.907 149.128 340.498C148.691 340.088 148.446 339.533 148.446 338.954Z" stroke="white" stroke-width="2" stroke-linecap="round" stroke-linejoin="round"/>
<path fill-rule="evenodd" clip-rule="evenodd" d="M124.932 349.017L143.577 356.795C144.062 356.993 144.443 357.363 144.638 357.824C144.833 358.285 144.825 358.8 144.616 359.255L142.987 362.69C142.878 362.913 142.723 363.114 142.531 363.28C142.339 363.447 142.114 363.577 141.868 363.662C141.623 363.747 141.362 363.785 141.1 363.775C140.839 363.765 140.582 363.707 140.345 363.604L121.686 355.826C121.446 355.73 121.228 355.589 121.046 355.413C120.864 355.237 120.72 355.03 120.624 354.802C120.527 354.574 120.479 354.33 120.483 354.085C120.487 353.839 120.543 353.597 120.647 353.372L122.27 349.938C122.38 349.713 122.536 349.511 122.729 349.343C122.922 349.175 123.149 349.044 123.397 348.959C123.644 348.873 123.907 348.834 124.17 348.844C124.434 348.854 124.692 348.913 124.932 349.017Z" fill="#3C1B09"/>
<path fill-rule="evenodd" clip-rule="evenodd" d="M93.3936 197.095C135.861 185.877 196.782 192.091 209.925 209.204C214.62 215.316 213.029 224.88 211.849 228.483C210.669 232.086 160.972 332.078 160.972 332.078L138.69 324.132L160.587 242.926C160.587 242.926 88.1148 198.479 93.3936 197.095Z" fill="#C4C4C4"/>
<path d="M146.579 326.941L172.229 249.428" stroke="#8D8D8D" stroke-width="2" stroke-linecap="round" stroke-linejoin="round"/>
<path d="M140.928 315.795L164.84 324.216" stroke="#8D8D8D" stroke-width="2" stroke-linecap="round" stroke-linejoin="round"/>
<path fill-rule="evenodd" clip-rule="evenodd" d="M209.405 353.607L228.557 348.482C228.557 348.482 259.711 350.425 271.14 347.947C274.123 351.405 275.066 353.36 273.065 356.512C272.186 357.914 241.937 366.871 241.937 366.871L234.76 365.962L214.498 370.937L209.405 353.607Z" fill="#6A3416"/>
<path fill-rule="evenodd" clip-rule="evenodd" d="M211.246 369.349L230.924 364.278C231.175 364.21 231.438 364.189 231.698 364.216C231.957 364.243 232.209 364.318 232.437 364.437C232.666 364.555 232.868 364.715 233.031 364.906C233.194 365.098 233.315 365.318 233.387 365.553L234.452 369.162C234.519 369.4 234.535 369.647 234.499 369.89C234.463 370.134 234.377 370.368 234.245 370.58C234.112 370.791 233.937 370.977 233.728 371.125C233.519 371.273 233.281 371.381 233.028 371.442L213.35 376.513C213.099 376.581 212.836 376.602 212.576 376.575C212.316 376.548 212.065 376.473 211.836 376.354C211.608 376.236 211.406 376.076 211.243 375.885C211.08 375.693 210.959 375.473 210.887 375.238L209.822 371.629C209.755 371.391 209.739 371.144 209.775 370.901C209.81 370.657 209.897 370.423 210.029 370.211C210.161 370 210.337 369.814 210.546 369.666C210.754 369.518 210.992 369.41 211.246 369.349Z" fill="#3C1B09"/>
<path d="M217.961 347.321C217.96 346.887 218.096 346.463 218.352 346.102C218.608 345.741 218.973 345.46 219.4 345.293C219.827 345.127 220.297 345.083 220.75 345.167C221.203 345.251 221.62 345.46 221.947 345.767C222.274 346.073 222.496 346.464 222.586 346.889C222.676 347.314 222.629 347.755 222.452 348.156C222.274 348.556 221.974 348.898 221.589 349.138C221.204 349.378 220.752 349.506 220.29 349.504C219.672 349.504 219.08 349.274 218.643 348.865C218.207 348.455 217.961 347.9 217.961 347.321Z" stroke="white" stroke-width="2" stroke-linecap="round" stroke-linejoin="round"/>
<path d="M222.137 340.259C222.136 339.825 222.272 339.401 222.528 339.04C222.784 338.679 223.148 338.398 223.575 338.231C224.002 338.065 224.472 338.021 224.926 338.105C225.379 338.189 225.796 338.398 226.123 338.705C226.449 339.011 226.672 339.402 226.762 339.827C226.852 340.253 226.805 340.693 226.627 341.094C226.45 341.494 226.15 341.836 225.765 342.076C225.38 342.316 224.928 342.444 224.465 342.442C223.848 342.441 223.257 342.21 222.821 341.801C222.384 341.392 222.139 340.838 222.137 340.259V340.259Z" stroke="white" stroke-width="2" stroke-linecap="round" stroke-linejoin="round"/>
<path d="M209.405 345.763C209.405 345.331 209.542 344.909 209.797 344.55C210.053 344.191 210.417 343.911 210.842 343.746C211.268 343.58 211.736 343.537 212.188 343.621C212.639 343.706 213.054 343.914 213.38 344.219C213.705 344.524 213.927 344.913 214.017 345.337C214.107 345.761 214.061 346.2 213.884 346.599C213.708 346.998 213.41 347.339 213.027 347.578C212.644 347.818 212.194 347.947 211.733 347.947C211.116 347.947 210.524 347.716 210.087 347.307C209.65 346.897 209.405 346.342 209.405 345.763Z" stroke="white" stroke-width="2" stroke-linecap="round" stroke-linejoin="round"/>
<path fill-rule="evenodd" clip-rule="evenodd" d="M58.5908 246.198H155.956C159.296 246.198 162.498 247.442 164.86 249.657C167.221 251.871 168.547 254.874 168.547 258.006C168.547 261.138 167.221 264.141 164.86 266.356C162.498 268.57 159.296 269.814 155.956 269.814H58.5908C55.2515 269.814 52.049 268.57 49.6878 266.356C47.3265 264.141 46 261.138 46 258.006V258.006C46 254.874 47.3265 251.871 49.6878 249.657C52.049 247.442 55.2515 246.198 58.5908 246.198Z" fill="#AADAF1"/>
<path fill-rule="evenodd" clip-rule="evenodd" d="M103.194 261.748H111.353C111.999 261.748 112.619 261.988 113.076 262.417C113.534 262.846 113.79 263.427 113.79 264.033V348.608C113.79 349.214 113.534 349.796 113.076 350.224C112.619 350.653 111.999 350.894 111.353 350.894H103.194C102.548 350.894 101.928 350.653 101.471 350.224C101.014 349.796 100.757 349.214 100.757 348.608V264.033C100.757 263.427 101.014 262.846 101.471 262.417C101.928 261.988 102.548 261.748 103.194 261.748Z" fill="#AADAF1"/>
<path fill-rule="evenodd" clip-rule="evenodd" d="M99.9103 323.741H114.663C115.728 323.741 116.749 324.138 117.502 324.844C118.255 325.55 118.678 326.508 118.678 327.507V347.922C118.678 348.419 118.573 348.912 118.369 349.37C118.165 349.829 117.867 350.246 117.491 350.596C117.114 350.946 116.668 351.223 116.177 351.41C115.686 351.597 115.161 351.692 114.631 351.688H99.8782C98.8133 351.688 97.792 351.291 97.039 350.585C96.286 349.879 95.863 348.921 95.863 347.922V327.507C95.863 327.009 95.9679 326.517 96.1717 326.059C96.3755 325.6 96.6741 325.183 97.0504 324.833C97.4266 324.483 97.873 324.206 98.3639 324.019C98.8547 323.831 99.3803 323.737 99.9103 323.741Z" fill="#AADAF1"/>
<path d="M58.392 366.227V362.239C58.392 359.441 59.5773 356.757 61.6871 354.778C63.7969 352.8 66.6585 351.688 69.6423 351.688H107.274" stroke="#AADAF1" stroke-width="2" stroke-linecap="round" stroke-linejoin="round"/>
<path d="M156.046 366.227V362.239C156.045 360.852 155.753 359.479 155.186 358.198C154.619 356.917 153.789 355.753 152.742 354.774C151.696 353.794 150.454 353.017 149.087 352.488C147.72 351.958 146.256 351.686 144.777 351.688H107.158" stroke="#AADAF1" stroke-width="2" stroke-linecap="round" stroke-linejoin="round"/>
<path d="M88.8332 366.227V361.415C88.8332 356.043 91.8157 351.688 95.491 351.688H119.056C122.732 351.688 125.714 356.043 125.714 361.415V366.227" stroke="#AADAF1" stroke-width="2" stroke-linecap="round" stroke-linejoin="round"/>
<path d="M52.2281 372.014C52.2281 370.87 52.5896 369.753 53.2669 368.802C53.9442 367.851 54.9069 367.11 56.0332 366.673C57.1595 366.235 58.3989 366.121 59.5945 366.344C60.7902 366.567 61.8885 367.118 62.7506 367.926C63.6126 368.734 64.1997 369.765 64.4375 370.886C64.6753 372.007 64.5533 373.17 64.0867 374.226C63.6202 375.282 62.8302 376.185 61.8165 376.82C60.8029 377.455 59.6111 377.794 58.392 377.794C56.7578 377.793 55.1909 377.183 54.0353 376.099C52.8797 375.016 52.2298 373.546 52.2281 372.014V372.014Z" stroke="#AADAF1" stroke-width="2" stroke-linecap="round" stroke-linejoin="round"/>
<path d="M82.6693 372.014C82.6693 370.87 83.0308 369.753 83.7081 368.802C84.3854 367.851 85.3481 367.11 86.4744 366.673C87.6007 366.235 88.84 366.121 90.0357 366.344C91.2314 366.567 92.3297 367.118 93.1918 367.926C94.0538 368.734 94.6409 369.765 94.8787 370.886C95.1165 372.007 94.9945 373.17 94.5279 374.226C94.0614 375.282 93.2713 376.185 92.2577 376.82C91.244 377.455 90.0523 377.794 88.8332 377.794C87.199 377.793 85.6321 377.183 84.4765 376.099C83.3209 375.016 82.671 373.546 82.6693 372.014V372.014Z" stroke="#AADAF1" stroke-width="2" stroke-linecap="round" stroke-linejoin="round"/>
<path d="M125.714 366.227C126.935 366.226 128.128 366.564 129.144 367.199C130.159 367.834 130.951 368.738 131.419 369.795C131.887 370.852 132.01 372.016 131.773 373.139C131.536 374.262 130.949 375.293 130.086 376.103C129.223 376.913 128.124 377.465 126.927 377.689C125.73 377.912 124.489 377.798 123.361 377.36C122.233 376.923 121.269 376.181 120.591 375.229C119.912 374.277 119.55 373.158 119.55 372.014C119.55 370.48 120.199 369.009 121.355 367.924C122.511 366.839 124.079 366.228 125.714 366.227" stroke="#AADAF1" stroke-width="2" stroke-linecap="round" stroke-linejoin="round"/>
<path d="M149.908 372.014C149.908 370.87 150.27 369.753 150.947 368.802C151.624 367.851 152.587 367.11 153.713 366.673C154.839 366.235 156.079 366.121 157.274 366.344C158.47 366.567 159.568 367.118 160.43 367.926C161.293 368.734 161.88 369.765 162.117 370.886C162.355 372.007 162.233 373.17 161.767 374.226C161.3 375.282 160.51 376.185 159.496 376.82C158.483 377.455 157.291 377.794 156.072 377.794C154.438 377.793 152.871 377.183 151.715 376.099C150.56 375.016 149.91 373.546 149.908 372.014V372.014Z" stroke="#AADAF1" stroke-width="2" stroke-linecap="round" stroke-linejoin="round"/>
<path fill-rule="evenodd" clip-rule="evenodd" d="M62.2405 173.558C23.3904 249.663 101.802 251.714 129.319 251.335C156.835 250.956 164.077 249.013 171.523 247.323C173.903 254.084 202.426 341.642 202.426 341.642L227.473 334.544C227.473 334.544 208.327 223.31 204.004 215.797C192.132 195.14 121.904 194.022 113.021 194.521C104.137 195.02 67.1665 163.909 62.2405 173.558Z" fill="#C4C4C4"/>
<path d="M64.6649 183.958C38.0529 246.246 152.185 242.493 177.149 235.359C180.882 245.374 211.785 338.466 211.785 338.466" stroke="#8D8D8D" stroke-width="2" stroke-linecap="round" stroke-linejoin="round"/>
<path d="M208.988 235.473C200.958 233.923 193.722 229.875 188.454 223.984C183.185 218.093 180.194 210.706 179.964 203.02" stroke="#8D8D8D" stroke-width="2" stroke-linecap="round" stroke-linejoin="round"/>
<path d="M159.574 249.609C163.599 249.053 167.588 248.29 171.523 247.323C172.511 250.126 177.995 266.83 184.069 285.418" stroke="#8D8D8D" stroke-width="2" stroke-linecap="round" stroke-linejoin="round"/>
<path d="M208.802 234.258C206.711 224.471 204.954 217.493 204.004 215.797C192.844 196.392 130.14 194.226 115.266 194.455" stroke="#8D8D8D" stroke-width="2" stroke-linecap="round" stroke-linejoin="round"/>
<path d="M226.274 327.663L200.271 335.032" stroke="#8D8D8D" stroke-width="2" stroke-linecap="round" stroke-linejoin="round"/>
<path fill-rule="evenodd" clip-rule="evenodd" d="M109.288 55.5439C109.288 53.0786 110.067 50.6686 111.528 48.6188C112.989 46.5691 115.064 44.9716 117.493 44.0284C119.922 43.0852 122.595 42.8388 125.173 43.3202C127.751 43.8016 130.119 44.9892 131.977 46.7329C133.836 48.4766 135.101 50.6979 135.613 53.116C136.125 55.5342 135.861 58.0404 134.854 60.3177C133.847 62.595 132.143 64.5412 129.956 65.91C127.77 67.2788 125.2 68.0087 122.571 68.0076C120.826 68.0076 119.098 67.6851 117.486 67.0587C115.874 66.4323 114.41 65.5141 113.176 64.3567C111.943 63.1992 110.964 61.8252 110.297 60.3131C109.63 58.801 109.287 57.1804 109.288 55.5439Z" fill="#6A3416"/>
<path fill-rule="evenodd" clip-rule="evenodd" d="M234.882 158.146C237.069 156.462 242.995 152.354 244.894 152.378C246.793 152.402 252.54 157.467 252.668 158.796C252.796 160.126 250.968 162.225 249.878 162.375C248.787 162.526 245.279 159.368 244.509 159.65C243.739 159.933 242.046 161.617 241.552 162.363C241.058 163.109 232.701 159.801 234.882 158.146Z" fill="#F77F89"/>
<path fill-rule="evenodd" clip-rule="evenodd" d="M156.502 125.123L169.625 137.682C169.625 137.682 179.554 117.694 186.468 107.119C185.07 105.23 182.62 97.705 182.934 96.2914C183.248 94.8778 190.471 81.5359 192.215 82.3119C193.96 83.0878 195.589 85.6925 194.697 88.3271C195.73 84.8563 197.475 80.0561 199.014 79.5809C200.554 79.1057 203.793 79.7313 203.652 82.1675C204.389 80.5735 205.691 79.4546 207.179 79.3945C208.462 79.3403 211.079 80.3689 211.259 81.8848C211.477 83.7796 208.59 88.3031 208.238 88.9467C209.585 87.2264 209.572 87.1421 210.38 87.1421C212.003 87.1963 214.748 89.458 213.407 92.7243C212.067 95.9906 205.441 111.233 200.31 111.883C200.547 114.842 185.256 156.137 185.256 156.137L162.088 155.271L145.213 134.338L156.502 125.123Z" fill="#F77F89"/>
<path fill-rule="evenodd" clip-rule="evenodd" d="M110.859 79.7494C68.2505 79.7975 54.0112 173.588 58.4626 180.018C61.7273 184.734 100.379 198.599 113.624 194.34C118.299 192.837 130.467 169.407 137.356 145.767C144.7 140.113 158.599 129.405 160.863 127.342C160.222 122.813 149.055 104.562 137.49 96.4778C133.494 87.9181 126.08 79.7494 110.859 79.7494Z" fill="#3B4161"/>
<path fill-rule="evenodd" clip-rule="evenodd" d="M121.879 143.475C121.879 143.475 142.218 167.536 147.567 169.491C152.916 171.446 210.694 170.821 214.915 170.357C219.135 169.894 218.365 172.914 222.182 173.106C226.133 173.311 228.41 170.033 228.949 168.378C231.36 170.893 235.613 174.761 238.403 173.413C240.379 172.451 240.404 171.609 239.044 170.279C240.969 171.32 244.445 172.848 245.85 171.819C248.107 170.171 248.319 168.631 247.556 167.35C245.202 163.386 237.62 157.774 235.818 157.124C233.74 156.354 227.409 158.471 224.363 158.646C210.553 159.446 175.731 151.391 164.308 150.904C162.627 147.896 145.213 128.148 143.866 126.175C139.087 130.007 121.879 143.475 121.879 143.475Z" fill="#F77F89"/>
<path fill-rule="evenodd" clip-rule="evenodd" d="M116.202 60.4584C116.201 56.715 117.383 53.0554 119.6 49.9425C121.817 46.8295 124.968 44.403 128.656 42.97C132.343 41.5369 136.401 41.1616 140.316 41.8916C144.231 42.6216 147.827 44.4241 150.649 47.071C153.472 49.718 155.394 53.0905 156.172 56.7619C156.95 60.4334 156.55 64.2389 155.022 67.6971C153.494 71.1552 150.907 74.1107 147.587 76.1896C144.268 78.2686 140.366 79.3776 136.374 79.3764C131.025 79.3748 125.895 77.3812 122.112 73.8337C118.33 70.2862 116.204 65.4753 116.202 60.4584Z" fill="#F77F89"/>
<path fill-rule="evenodd" clip-rule="evenodd" d="M118.909 56.3379C118.992 59.2794 112.424 77.8786 109.833 81.4397C111.116 84.2849 123.668 91.419 129.434 89.8971C130.076 86.288 132.224 79.0336 133.552 77.4215C134.88 75.8094 118.825 53.3724 118.909 56.3379Z" fill="#F77F89"/>
<path fill-rule="evenodd" clip-rule="evenodd" d="M141.967 20.5711C140.05 20.5766 138.156 20.9732 136.419 21.7336C134.681 22.4939 133.14 23.5997 131.904 24.9743C130.245 24.3876 128.488 24.0821 126.715 24.072C124.338 24.0403 121.988 24.5371 119.855 25.5219C117.723 26.5066 115.87 27.9512 114.448 29.7373C113.027 31.5233 112.076 33.5999 111.675 35.7968C111.274 37.9938 111.434 40.2486 112.142 42.3764C111.246 43.1498 110.53 44.0889 110.04 45.1345C109.55 46.1802 109.296 47.3097 109.294 48.4519C109.309 50.4173 110.053 52.3165 111.399 53.8227C112.745 55.329 114.609 56.3482 116.67 56.7048C116.773 56.2417 116.773 55.9168 116.933 55.3875C117.369 53.9799 123.899 51.4054 124.63 51.8686C125.206 52.2558 125.861 52.5263 126.554 52.6626C126.614 52.6658 126.674 52.6658 126.734 52.6626C129.446 52.6561 132.106 51.9694 134.44 50.6737C136.773 49.378 138.695 47.5205 140.005 45.2939C140.66 45.4018 141.322 45.4641 141.987 45.4803C141.987 47.9454 142.766 50.3551 144.226 52.4048C145.687 54.4544 147.762 56.0519 150.191 56.9952C152.619 57.9386 155.291 58.1854 157.869 57.7045C160.447 57.2236 162.815 56.0365 164.674 54.2935C166.533 52.5504 167.798 50.3296 168.311 47.9119C168.824 45.4942 168.561 42.9881 167.555 40.7107C166.549 38.4333 164.846 36.4867 162.66 35.1172C160.475 33.7477 157.905 33.0167 155.277 33.0167C155.274 31.3799 154.928 29.7597 154.258 28.2484C153.587 26.7372 152.606 25.3645 151.37 24.2088C150.135 23.0531 148.668 22.1371 147.055 21.5129C145.441 20.8887 143.713 20.5687 141.967 20.5711Z" fill="#6A3416"/>
<path fill-rule="evenodd" clip-rule="evenodd" d="M110.853 48.9933C110.857 47.545 111.318 46.1302 112.179 44.9277C113.039 43.7253 114.261 42.789 115.689 42.2372C117.117 41.6855 118.687 41.5429 120.201 41.8277C121.715 42.1124 123.105 42.8116 124.196 43.837C125.287 44.8623 126.029 46.1678 126.329 47.5886C126.629 49.0093 126.473 50.4815 125.881 51.8192C125.289 53.1569 124.288 54.3001 123.003 55.1044C121.719 55.9087 120.209 56.3379 118.665 56.3379C117.638 56.3379 116.62 56.1478 115.671 55.7785C114.722 55.4092 113.86 54.8679 113.134 54.1856C112.408 53.5034 111.833 52.6936 111.442 51.8026C111.05 50.9116 110.85 49.9569 110.853 48.9933Z" fill="#F77F89"/>
<path d="M70.7455 176.331C69.9052 164.697 81.7585 121.477 90.6291 108.617" stroke="#737999" stroke-width="2" stroke-linecap="round" stroke-linejoin="round"/>
<path d="M97.0111 118.849C99.0765 122.849 109.294 140.564 117.953 146.814C121.256 143.878 145.065 124.852 145.065 124.852C142.025 119.552 127.407 102.938 122.667 98.8659" stroke="#737999" stroke-width="2" stroke-linecap="round" stroke-linejoin="round"/>
<path d="M113.47 142.771L142.089 120.593" stroke="#737999" stroke-width="2" stroke-linecap="round" stroke-linejoin="round"/>
<path d="M134.226 90.9678C134.027 91.5622 133.729 92.1228 133.34 92.628C129.941 97.0793 120.358 96.5921 111.937 91.5453" stroke="#737999" stroke-width="2" stroke-linecap="round" stroke-linejoin="round"/>
<path d="M137.574 96.52C139.196 100.478 141.422 109.711 140.479 118.548" stroke="#737999" stroke-width="2" stroke-linecap="round" stroke-linejoin="round"/>
<path d="M148.112 131.306L158.888 122.338" stroke="#737999" stroke-width="2" stroke-linecap="round" stroke-linejoin="round"/>
<path d="M101.161 168.222C104.721 167.699 124.155 168.072 120.564 169.215C116.972 170.357 110.25 171.17 113.245 171.831C116.122 172.464 119.037 172.934 121.975 173.239" stroke="#737999" stroke-width="2" stroke-linecap="round" stroke-linejoin="round"/>
<path d="M147.073 60.9576C146.874 62.6239 147.265 66.3714 148.606 68.0075" stroke="#B5545C" stroke-width="2" stroke-linecap="round" stroke-linejoin="round"/>
<path fill-rule="evenodd" clip-rule="evenodd" d="M136.259 58.744C136.9 57.3184 138.183 56.4582 139.075 56.8252C139.966 57.1921 140.146 58.6297 139.485 60.0674C138.824 61.505 137.561 62.3532 136.669 61.9863C135.778 61.6193 135.592 60.1757 136.259 58.744Z" fill="#B5545C"/>
<path fill-rule="evenodd" clip-rule="evenodd" d="M151.492 61.9983C152.134 60.5727 153.417 59.7125 154.308 60.0734C155.2 60.4343 155.379 61.878 154.719 63.3156C154.058 64.7533 152.794 65.6014 151.903 65.2345C151.011 64.8676 150.825 63.4179 151.492 61.9983Z" fill="#B5545C"/>
<path d="M136.182 72.4649C134.951 72.0985 133.862 71.3998 133.052 70.4561C132.242 69.5124 131.747 68.3657 131.628 67.1594" stroke="#B5545C" stroke-width="2" stroke-linecap="round" stroke-linejoin="round"/>
<path d="M132.661 79.0576C129.984 78.5868 127.436 77.613 125.171 76.1947C122.905 74.7763 120.97 72.9429 119.48 70.8047" stroke="#B5545C" stroke-width="2" stroke-linecap="round" stroke-linejoin="round"/>
<path d="M121.391 55.8567C120.52 56.1644 119.596 56.3214 118.665 56.3199C117.954 56.3197 117.246 56.2286 116.561 56.0492" stroke="#B5545C" stroke-width="2" stroke-linecap="round" stroke-linejoin="round"/>
<path d="M117.158 53.4085C116.335 53.1987 115.591 52.7772 115.01 52.1917C114.428 51.6062 114.034 50.88 113.869 50.0951C113.705 49.3102 113.778 48.4978 114.081 47.7499C114.383 47.0019 114.902 46.3481 115.58 45.8624C116.257 45.3766 117.066 45.0782 117.915 45.0009C118.764 44.9236 119.619 45.0704 120.384 45.4249C121.148 45.7793 121.792 46.3272 122.242 47.0067C122.692 47.6861 122.93 48.4701 122.93 49.27" stroke="#B5545C" stroke-width="2" stroke-linecap="round" stroke-linejoin="round"/>
<path d="M185.827 153.96L164.487 150.904L151.242 134.952" stroke="#B5545C" stroke-width="2" stroke-linecap="round" stroke-linejoin="round"/>
<path d="M194.332 105.392C195.127 103.768 197.334 100.207 196.57 98.6554C195.807 97.1034 190.522 95.0041 191.17 93.5183C191.818 92.0325 194.755 88.0143 194.755 88.0143" stroke="#B5545C" stroke-width="2" stroke-linecap="round" stroke-linejoin="round"/>
<path d="M203.619 82.1555L199.572 89.9152" stroke="#B5545C" stroke-width="2" stroke-linecap="round" stroke-linejoin="round"/>
<path d="M208.43 88.9407L205.14 93.3198" stroke="#B5545C" stroke-width="2" stroke-linecap="round" stroke-linejoin="round"/>
<path d="M236.235 157.31L242.11 161.521" stroke="#B5545C" stroke-width="2" stroke-linecap="round" stroke-linejoin="round"/>
<path d="M238.961 170.027L234.574 166.225" stroke="#B5545C" stroke-width="2" stroke-linecap="round" stroke-linejoin="round"/>
<path fill-rule="evenodd" clip-rule="evenodd" d="M212.606 22.7546H220.001C220.347 22.7546 220.642 23.1396 220.642 23.6148V27.9398C220.642 28.415 220.354 28.7939 220.001 28.7939H212.606C212.253 28.7939 211.964 28.415 211.964 27.9398V23.6148C211.971 23.1396 212.253 22.7546 212.606 22.7546Z" fill="#FF3274"/>
<path fill-rule="evenodd" clip-rule="evenodd" d="M223.837 26.051V28.7098C223.837 28.788 223.779 28.818 223.715 28.7819L221.252 27.4646L218.795 26.1352C218.725 26.0991 218.725 26.039 218.795 26.0029L221.252 24.6675L223.715 23.3381C223.727 23.3299 223.741 23.3251 223.756 23.3243C223.771 23.3236 223.786 23.327 223.799 23.334C223.812 23.341 223.822 23.3514 223.829 23.3638C223.836 23.3763 223.838 23.3904 223.837 23.4043V26.051Z" fill="#FF3274"/>
<path d="M206.993 25.7743C206.993 23.7518 207.633 21.7747 208.831 20.093C210.029 18.4114 211.732 17.1007 213.724 16.3267C215.717 15.5527 217.909 15.3502 220.024 15.7448C222.14 16.1394 224.082 17.1133 225.607 18.5434C227.132 19.9736 228.171 21.7957 228.592 23.7793C229.012 25.7629 228.796 27.819 227.971 29.6876C227.146 31.5561 225.748 33.1532 223.955 34.2769C222.162 35.4005 220.054 36.0003 217.897 36.0003C215.005 36.0003 212.232 34.9229 210.187 33.0051C208.142 31.0874 206.993 28.4864 206.993 25.7743Z" stroke="#FF3274" stroke-width="2" stroke-linecap="round" stroke-linejoin="round"/>
<path d="M64.6585 0.997361H220.899C222.983 0.996571 225.047 1.38096 226.973 2.12856C228.898 2.87616 230.648 3.97232 232.122 5.35438C233.595 6.73643 234.764 8.37731 235.561 10.1832C236.358 11.9891 236.768 13.9246 236.767 15.8792V90.5107C236.767 94.4576 235.096 98.2428 232.12 101.034C229.144 103.825 225.108 105.392 220.899 105.392H64.6585C60.4511 105.391 56.4165 103.822 53.442 101.032C50.4675 98.2409 48.7965 94.4565 48.7965 90.5107V15.8792C48.7957 13.9251 49.2053 11.9901 50.0021 10.1846C50.7989 8.37909 51.9671 6.73848 53.4401 5.3565C54.9131 3.97452 56.662 2.87824 58.5869 2.13029C60.5118 1.38233 62.5749 0.997361 64.6585 0.997361V0.997361Z" stroke="#9B9B9B" stroke-width="2" stroke-linecap="round" stroke-linejoin="round"/>
<path d="M235.748 10.5436H49.9767" stroke="#9B9B9B" stroke-width="2" stroke-linecap="round" stroke-linejoin="round"/>
<path d="M60.2008 5.94793C60.1995 5.5289 60.3308 5.11894 60.5781 4.76995C60.8254 4.42096 61.1776 4.14863 61.59 3.98745C62.0025 3.82627 62.4566 3.78348 62.895 3.86449C63.3334 3.94551 63.7363 4.1467 64.0527 4.44258C64.3691 4.73846 64.5848 5.11573 64.6724 5.52662C64.76 5.93751 64.7157 6.36356 64.545 6.75081C64.3743 7.13806 64.0849 7.4691 63.7135 7.70203C63.3421 7.93496 62.9053 8.05929 62.4585 8.05929C61.8608 8.0593 61.2875 7.83704 60.8643 7.44126C60.4411 7.04547 60.2025 6.50845 60.2008 5.94793V5.94793Z" stroke="#FF3274" stroke-width="2" stroke-linecap="round" stroke-linejoin="round"/>
<path d="M69.0906 5.94793C69.0894 5.5289 69.2207 5.11894 69.468 4.76995C69.7153 4.42096 70.0675 4.14863 70.4799 3.98745C70.8924 3.82627 71.3465 3.78348 71.7849 3.86449C72.2233 3.94551 72.6262 4.1467 72.9426 4.44258C73.259 4.73846 73.4747 5.11573 73.5623 5.52662C73.6499 5.93751 73.6056 6.36356 73.4349 6.75081C73.2642 7.13806 72.9748 7.4691 72.6034 7.70203C72.232 7.93496 71.7952 8.05929 71.3484 8.05929C71.0522 8.06009 70.7588 8.00606 70.4849 7.90031C70.211 7.79456 69.9621 7.63916 69.7523 7.44302C69.5426 7.24689 69.3762 7.01386 69.2626 6.75731C69.1491 6.50075 69.0906 6.22571 69.0906 5.94793V5.94793Z" stroke="#FF3274" stroke-width="2" stroke-linecap="round" stroke-linejoin="round"/>
<path d="M77.9998 5.94793C77.9985 5.5289 78.1299 5.11894 78.3772 4.76995C78.6245 4.42096 78.9767 4.14863 79.3891 3.98745C79.8015 3.82627 80.2557 3.78348 80.6941 3.86449C81.1324 3.94551 81.5353 4.1467 81.8517 4.44258C82.1681 4.73846 82.3838 5.11573 82.4714 5.52662C82.5591 5.93751 82.5147 6.36356 82.344 6.75081C82.1733 7.13806 81.884 7.4691 81.5125 7.70203C81.1411 7.93496 80.7044 8.05929 80.2575 8.05929C79.6599 8.0593 79.0866 7.83704 78.6633 7.44126C78.2401 7.04547 78.0015 6.50845 77.9998 5.94793V5.94793Z" stroke="#FF3274" stroke-width="2" stroke-linecap="round" stroke-linejoin="round"/>
<path d="M357.852 180.962L298.516 351.688" stroke="#AADAF1" stroke-width="2" stroke-linecap="round" stroke-linejoin="round"/>
<path d="M406.028 180.962L346.692 351.688" stroke="#AADAF1" stroke-width="2" stroke-linecap="round" stroke-linejoin="round"/>
<path d="M406.028 180.962L465.359 351.688" stroke="#AADAF1" stroke-width="2" stroke-linecap="round" stroke-linejoin="round"/>
<path d="M357.852 180.962L417.182 351.688" stroke="#AADAF1" stroke-width="2" stroke-linecap="round" stroke-linejoin="round"/>
<path fill-rule="evenodd" clip-rule="evenodd" d="M255.099 69.8121H347.07C348.974 69.8121 350.799 70.5213 352.145 71.7836C353.491 73.0459 354.248 74.758 354.248 76.5432V147.77C354.248 149.555 353.491 151.267 352.145 152.53C350.799 153.792 348.974 154.501 347.07 154.501H255.099C253.197 154.498 251.375 153.787 250.032 152.525C248.689 151.263 247.934 149.553 247.934 147.77V76.5432C247.934 74.7601 248.689 73.0499 250.032 71.7879C251.375 70.5259 253.197 69.8153 255.099 69.8121Z" fill="#AADAF1"/>
<path fill-rule="evenodd" clip-rule="evenodd" d="M255.099 69.8061C254.157 69.8053 253.223 69.9787 252.353 70.3163C251.482 70.6539 250.691 71.1491 250.024 71.7737C249.357 72.3983 248.829 73.1399 248.468 73.9562C248.107 74.7725 247.921 75.6475 247.921 76.5312V147.77C247.93 149.55 248.69 151.254 250.035 152.51C251.38 153.766 253.201 154.471 255.099 154.471H259.711C259.672 154.062 259.569 153.665 259.569 153.268V69.8061H255.099Z" fill="#8DC5E0"/>
<path fill-rule="evenodd" clip-rule="evenodd" d="M288.337 133.502H319.387L336.776 170.592H304.628L288.337 133.502Z" fill="#8DC5E0"/>
<path fill-rule="evenodd" clip-rule="evenodd" d="M392.065 144.456H417.644V170.592H392.065V144.456Z" fill="#8DC5E0"/>
<path d="M410.826 157.521C410.826 156.297 411.213 155.1 411.938 154.082C412.664 153.064 413.694 152.271 414.9 151.802C416.106 151.334 417.434 151.211 418.714 151.45C419.994 151.689 421.17 152.278 422.093 153.144C423.016 154.01 423.645 155.113 423.899 156.313C424.154 157.514 424.023 158.759 423.524 159.89C423.024 161.021 422.178 161.987 421.093 162.667C420.008 163.348 418.732 163.711 417.426 163.711C415.676 163.711 413.997 163.058 412.759 161.898C411.522 160.737 410.826 159.163 410.826 157.521V157.521Z" stroke="#8DC5E0" stroke-width="2" stroke-linecap="round" stroke-linejoin="round"/>
<path d="M392.065 148.907H417.426" stroke="#AADAF1" stroke-width="2" stroke-linecap="round" stroke-linejoin="round"/>
<path opacity="0.25" fill-rule="evenodd" clip-rule="evenodd" d="M64.742 0.99736H220.982C225.191 0.99736 229.227 2.56526 232.203 5.35614C235.179 8.14702 236.851 11.9323 236.851 15.8792V90.5107C236.851 94.4576 235.179 98.2428 232.203 101.034C229.227 103.825 225.191 105.392 220.982 105.392H64.742C60.5345 105.391 56.4999 103.822 53.5254 101.032C50.5509 98.2409 48.8799 94.4566 48.8799 90.5107V15.8792C48.8791 13.9251 49.2888 11.9901 50.0855 10.1846C50.8823 8.37909 52.0505 6.73848 53.5236 5.3565C54.9966 3.97452 56.7455 2.87824 58.6703 2.13029C60.5952 1.38233 62.6584 0.99736 64.742 0.99736Z" fill="white"/>
</g>
<defs>
<clipPath id="clip0">
<rect x="46" y="1.52588e-05" width="420" height="378" fill="white"/>
</clipPath>
</defs>
</svg>
